<svg height="512pt" viewBox="0 -50 512 512" width="512pt" xmlns="http://www.w3.org/2000/svg"><path d="m376.492188 70.03125c9.28125-1.273438 16.460937-8.773438 17.03125-18.132812l1.886718-31.265626c.679688-11.167968-8.1875-20.695312-19.386718-20.632812-35.019532.21875-59.421876 24.085938-41.371094 78.882812 20.625 62.550782 22.324218 227.109376-25.632813 227.285157l-23.867187.09375c-10.40625.039062-19.765625-6.339844-23.53125-16.039063l-36.058594-92.9375h-.828125v-11.089844c0-7.882812-6.386719-14.324218-14.324219-14.324218h-112.523437c-5.457031 0-10.199219 3.039062-12.617188 7.519531-2.703125 5.019531-1.355469 8.835937-1.710937 17.894531-27.984375 29.832032-44.921875 69.410156-56.039063 108.832032-3.816406 13.472656 6.289063 26.875 20.304688 26.875h310.160156c.902344-43.527344 37.71875-77.457032 80.714844-75.289063-57.613281-140.5625-81.949219-184.953125-62.207031-187.671875zm0 0" fill="#fb5858"/><path d="m76.101562 208.570312-46.222656-56.511718c-2.722656-3.328125-7.625-3.816406-10.949218-1.097656-3.328126 2.722656-3.816407 7.625-1.097657 10.949218l46.226563 56.511719c1.539062 1.878906 3.773437 2.851563 6.027344 2.851563 1.730468 0 3.476562-.574219 4.921874-1.757813 3.324219-2.71875 3.816407-7.621094 1.09375-10.945313zm0 0" fill="#4b5055"/><path d="m512 334.628906c0 42.535156-34.484375 77.019532-77.019531 77.019532-42.535157 0-77.019531-34.484376-77.019531-77.019532 0-42.539062 34.484374-77.019531 77.019531-77.019531 42.535156 0 77.019531 34.480469 77.019531 77.019531zm0 0" fill="#4b5055"/><path d="m473.140625 334.632812c0 15.589844-9.355469 28.996094-22.757813 34.917969-4.710937 2.085938-9.917968 3.238281-15.40625 3.238281-21.070312 0-38.152343-17.085937-38.152343-38.15625 0-21.078124 17.082031-38.164062 38.152343-38.164062 5.488282 0 10.695313 1.152344 15.40625 3.234375 13.402344 5.925781 22.757813 19.339844 22.757813 34.929687zm0 0" fill="#5a5f64"/><path d="m424.632812 34.003906c0 6.101563-2.144531 11.691406-5.726562 16.058594-.539062.664062-1.109375 1.308594-1.71875 1.910156-4.597656 4.605469-10.945312 7.449219-17.96875 7.449219h-15.332031v-50.832031h15.332031c1.722656 0 3.414062.175781 5.042969.507812 11.617187 2.335938 20.371093 12.59375 20.371093 24.90625zm0 0" fill="#ffb52d"/><path d="m424.632812 34.003906c0 6.101563-2.144531 11.691406-5.726562 16.058594-8.140625-.351562-14.644531-7.074219-14.644531-15.308594v-25.65625c11.617187 2.335938 20.371093 12.59375 20.371093 24.90625zm0 0" fill="#ffc14f"/><path d="m224.121094 334.628906c0 42.535156-34.484375 77.019532-77.019532 77.019532-42.539062 0-77.019531-34.484376-77.019531-77.019532 0-42.539062 34.480469-77.019531 77.019531-77.019531 42.535157 0 77.019532 34.480469 77.019532 77.019531zm0 0" fill="#4b5055"/><path d="m185.261719 334.632812c0 15.589844-9.355469 28.996094-22.757813 34.917969-4.710937 2.085938-9.917968 3.238281-15.40625 3.238281-21.078125 0-38.164062-17.085937-38.164062-38.15625 0-21.078124 17.085937-38.164062 38.164062-38.164062 5.488282 0 10.695313 1.152344 15.40625 3.234375 13.402344 5.925781 22.757813 19.339844 22.757813 34.929687zm0 0" fill="#5a5f64"/><path d="m473.140625 334.632812c0 15.589844-9.355469 28.996094-22.757813 34.917969-13.414062-5.914062-22.769531-19.328125-22.769531-34.917969 0-15.601562 9.355469-29.015624 22.769531-34.929687 13.402344 5.925781 22.757813 19.339844 22.757813 34.929687zm0 0" fill="#7d8287"/><path d="m185.261719 334.632812c0 15.589844-9.355469 28.996094-22.757813 34.917969-13.414062-5.914062-22.769531-19.328125-22.769531-34.917969 0-15.601562 9.355469-29.015624 22.769531-34.929687 13.402344 5.925781 22.757813 19.339844 22.757813 34.929687zm0 0" fill="#7d8287"/><path d="m224.734375 186.195312v11.089844h-141.175781v-11.089844c0-2.46875.625-4.78125 1.710937-6.804687 2.417969-4.480469 7.160157-7.519531 12.617188-7.519531h112.523437c5.453125 0 10.195313 3.050781 12.613282 7.53125 1.089843 2.023437 1.710937 4.335937 1.710937 6.792968zm0 0" fill="#4b5055"/><path d="m223.023438 179.402344c-1.960938 3.113281-5.4375 5.175781-9.378907 5.175781h-118.984375c-3.070312 0-5.839844-1.246094-7.855468-3.246094-.578126-.582031-1.097657-1.234375-1.535157-1.941406 2.417969-4.480469 7.160157-7.519531 12.617188-7.519531h112.523437c5.453125 0 10.195313 3.050781 12.613282 7.53125zm0 0" fill="#5a5f64"/><path d="m438.699219 257.703125c-42.996094-2.167969-79.8125 31.761719-80.714844 75.289063h-310.160156c-14.015625 0-24.121094-13.402344-20.304688-26.875.664063-2.355469 1.359375-4.742188 2.097657-7.148438 1.648437-5.5 3.453124-11.101562 5.433593-16.742188 6.527344-18.664062 14.941407-37.84375 26.144531-55.695312 6.472657-10.324219 13.867188-20.1875 22.363282-29.246094h142.003906l36.058594 92.9375c3.765625 9.699219 13.125 16.078125 23.53125 16.039063l23.867187-.09375c47.957031-.175781 46.257813-164.734375 25.632813-227.285157-18.050782-54.796874 6.351562-78.664062 41.371094-78.882812 3.816406-.0195312 7.355468 1.070312 10.34375 2.957031 5.789062 3.660157 9.492187 10.3125 9.042968 17.675781l-1.886718 31.265626c-.570313 9.359374-7.75 16.859374-17.03125 18.132812-19.742188 2.71875 4.59375 47.109375 62.207031 187.671875zm0 0" fill="#fb5858"/><path d="m438.699219 257.703125c-42.996094-2.167969-79.808594 31.765625-80.714844 75.289063h-11.765625c2.292969-14.84375 6.597656-29.136719 14.347656-42.507813 24.710938-42.617187 20.445313-160.78125 3.691406-211.601563-14.480468-43.976562-1.625-68.03125 22.109376-75.925781 5.789062 3.660157 9.492187 10.3125 9.042968 17.675781l-1.886718 31.265626c-.570313 9.359374-7.75 16.859374-17.03125 18.132812-19.742188 2.71875 4.59375 47.109375 62.207031 187.671875zm0 0" fill="#f44545"/><path d="m366.546875 29.855469h-72.617187c-4.296876 0-7.78125 3.484375-7.78125 7.78125s3.484374 7.78125 7.78125 7.78125h72.617187c4.296875 0 7.777344-3.484375 7.777344-7.78125s-3.480469-7.78125-7.777344-7.78125zm0 0" fill="#4b5055"/><path d="m252.753906 304.882812v.570313c0 11.335937-5.589844 21.378906-14.179687 27.539063h-190.75c-14.015625 0-24.121094-13.402344-20.304688-26.875.664063-2.355469 1.359375-4.742188 2.097657-7.148438 1.648437-5.5 3.453124-11.101562 5.433593-16.742188 6.527344-18.664062 14.941407-37.84375 26.144531-55.695312 77.78125-55.9375 191.558594-14.410156 191.558594 78.351562zm0 0" fill="#f44545"/><path d="m108.933594 57.492188v109.089843c0 2.921875-2.367188 5.289063-5.28125 5.289063h-98.371094c-2.917969 0-5.28125-2.367188-5.28125-5.289063v-109.089843c0-2.917969 2.363281-5.28125 5.28125-5.28125h98.371094c2.914062 0 5.28125 2.363281 5.28125 5.28125zm0 0" fill="#f44545"/><path d="m108.933594 57.492188v91.835937h-76.226563c-2.914062 0-5.277343-2.363281-5.277343-5.28125v-91.835937h76.222656c2.914062 0 5.28125 2.363281 5.28125 5.28125zm0 0" fill="#fb5858"/><path d="m456.324219 262.234375-25.464844 50.28125c-6.371094 12.5625-19.265625 20.476563-33.339844 20.476563h-53.03125c.039063-10.050782 1.730469-19.675782 4.8125-28.628907 11.464844-33.308593 42.179688-57.355469 78.921875-59.992187 2.230469-.164063 4.480469-.25 6.753906-.25 4.210938 0 8.363282.292968 12.429688.851562 8.101562 1.121094 12.621094 9.96875 8.917969 17.261719zm0 0" fill="#af2727"/><path d="m428.222656 244.371094-20.019531 39.503906c-6.371094 12.574219-19.253906 20.488281-33.339844 20.488281h-25.5625c11.464844-33.308593 42.179688-57.355469 78.921875-59.992187zm0 0" fill="#d63030"/><path d="m232.703125 304.632812v.464844c0 15.40625-12.550781 27.894532-28.027344 27.894532h-156.851562c-14.011719 0-24.117188-13.402344-20.300781-26.875 1.082031-3.832032 1.6875-5.785157 2.144531-7.3125 7.664062-25.5 25.1875-38.804688 30.761719-45.855469 63.0625-63.921875 172.273437-30.703125 172.273437 51.683593zm0 0" fill="#d63030"/><g fill="#af2727"><path d="m89.675781 272.359375h88.367188c4.296875 0 7.78125-3.484375 7.78125-7.78125s-3.484375-7.777344-7.78125-7.777344h-88.367188c-4.296875 0-7.777343 3.480469-7.777343 7.777344s3.480468 7.78125 7.777343 7.78125zm0 0"/><path d="m178.042969 288.683594h-88.367188c-4.296875 0-7.777343 3.484375-7.777343 7.78125s3.480468 7.78125 7.777343 7.78125h88.367188c4.296875 0 7.78125-3.484375 7.78125-7.78125s-3.484375-7.78125-7.78125-7.78125zm0 0"/></g></svg>