<?xml version="1.0" standalone="no"?><!DOCTYPE svg PUBLIC "-//W3C//DTD SVG 1.1//EN" "http://www.w3.org/Graphics/SVG/1.1/DTD/svg11.dtd"><svg class="icon" height="512" viewBox="0 0 1024 1024" version="1.1" xmlns="http://www.w3.org/2000/svg"><path d="M522.719582 432.554066v-0.016466H406.623711v14.967895h231.179063v-14.951429z" fill="#434448" /><path d="M647.468511 252.80759l-7.961472-9.287011-0.032932-6.37247s5.969045 2.486416 5.969045-5.647952v-40.597741s-1.737198-18.236462-21.274501-31.047268c-19.273841-12.629676-36.975148-24.633632-101.449069-27.144748v-0.041166l-0.510456 0.0247-0.502223-0.0247v0.041166c-64.465688 2.511116-82.175228 14.515071-101.44907 27.144748-19.537303 12.810806-21.274501 31.047268-21.2745 31.047268v40.597741c0 8.126135 5.977278 5.647952 5.977278 5.647952l-0.041166 6.37247-7.961471 9.287011v78.733765l8.397829 11.295903s-0.288161 79.581781-0.576322 89.132254c-0.279928 9.550472 13.897584 7.829741 13.897584 7.82974h207.097054s14.185745 1.720732 13.897584-7.82974-0.576322-89.132253-0.576322-89.132254l8.397829-11.295903v-78.733765z" fill="#59BCA3" /><path d="M652.680105 894.006545v-62.41563c0-5.392724-3.61436-4.174215-3.61436-4.174216h-3.540262l-122.945865-0.123497-123.670384 0.123497h-3.548494s-3.606127-1.218509-3.606127 4.174216v62.41563s-1.16911 10.777214 11.279437 10.777214h118.672853v0.016466H641.384201c12.448547 0 11.295904-10.79368 11.295904-10.79368z" fill="#221F20" /><path d="M637.736909 447.505495H406.755441c-4.330645 0-7.837974 3.74609-7.837974 8.381363v430.528708c0 4.635272 3.507329 8.37313 7.837974 8.373129h230.981468c4.289479 0 7.780342-3.729624 7.780341-8.373129V455.878625c0.008233-4.627039-3.482629-8.37313-7.780341-8.37313z" fill="#2E3C42" /><path d="M442.04279 159.534054s-25.399317 15.198424-26.049737 41.248161 0 68.8128 1.086778 81.417777c1.086778 12.572044 3.474396 32.998529 3.474396 32.998529s0.214062-89.156953 0.214062-105.730316c0-20.039526 1.95126-28.437355 21.274501-49.934151zM495.229041 195.068398s-30.248651-1.012679-38.210122 11.863992c-7.961471 12.868438-23.58802 35.600209-23.588021 35.600209s16.062907-32.998529 23.736218-40.095518c7.665077-7.072289 26.189701-8.957684 38.061925-7.368683z" fill="#78C6B5" /><path d="M409.554718 292.458517v104.190713s0.872716 12.448547 9.838633 12.448547c8.974151 0 2.642846-41.964446 3.210934-56.150191 0.559855-14.169278-4.305946-58.17555-4.305945-58.17555l-8.743622-2.313519z" fill="#2E3C42" /><path d="M415.737825 264.383421L406.656643 272.847116s-28.215059 13.461226-28.873712 15.404253c-0.642187 1.959493 0 6.73473 0 6.734729l25.399316-7.376916s4.273013 1.226742 6.364237 4.849335 8.743622 2.305286 8.743623 2.305286l-2.552282-30.380382zM402.457729 384.208917h2.593447v20.706412h-2.593447z" fill="#201E1E" /><path d="M428.886191 333.846641s-1.506669 95.809351 0 98.122871c1.506669 2.321753 3.532028 4.635272 4.544707 4.923433s-6.224273 1.160876-7.376916-10.99951c-1.160876-12.152153 0-107.080555 0-107.080555l2.832209 15.033761z" fill="#78C6B5" /><path d="M522.719582 453.062882H410.378034c-3.515562 0-6.356004 1.572535-6.356004 3.532029v428.939706c0 1.943027 2.848675 3.523795 6.356004 3.523795h112.341548V453.062882zM392.330935 627.984724v93.627561l6.586532 12.250951V617.553303z" fill="#48B897" /><path d="M624.316848 159.863381c-19.298541-12.646143-37.03278-24.666565-101.728997-27.152981v-0.032933l-0.370492 0.016467-0.36226-0.016467v0.032933c-64.696217 2.478183-82.430456 14.506838-101.728996 27.152981-19.537303 12.810806-21.274501 31.047268-21.274501 31.047268v40.597741c0 4.528241 1.852462 5.754983 3.490862 5.977278h1.136177a5.787916 5.787916 0 0 0 1.350239-0.329326v0.329326h0.016467c-0.016466-0.246995-0.016466-0.502223-0.016467-0.773917v-40.589508s1.728965-18.236462 21.266268-31.047268c18.730452-12.27565 35.978935-23.966746 96.130444-26.922452 60.15151 2.947473 77.399992 14.638569 96.138677 26.922452 19.537303 12.810806 21.274501 31.047268 21.274501 31.047268v40.589508c0 0.271694 0 0.518689-0.016466 0.773917h0.016466v-0.329326s0.559855 0.230529 1.350239 0.329326h1.127944c1.6384-0.205829 3.490862-1.449037 3.490862-5.977278v-40.597741s-1.753664-18.236462-21.290967-31.047268z" fill="#242323" /><path d="M602.391928 159.534054s25.391083 15.198424 26.049736 41.248161c0.642187 26.049737 0 68.8128-1.086778 81.417777-1.086778 12.572044-3.482629 32.998529-3.482629 32.998529s-0.205829-89.156953-0.205829-105.730316c0-20.039526-1.95126-28.437355-21.2745-49.934151zM549.205676 195.068398s30.256884-1.012679 38.210123 11.863992c7.961471 12.868438 23.58802 35.600209 23.58802 35.600209s-16.062907-32.998529-23.736217-40.095518c-7.673311-7.072289-26.189701-8.957684-38.061926-7.368683z" fill="#78C6B5" /><path d="M615.548527 247.299602c-5.162195-8.084969-13.584724-12.876671-27.8528-18.228229-23.662119-6.257206-58.611908-6.635932-64.984378-6.652398 0 0-39.864989-0.255228-65.988824 6.652398-14.25161 5.343325-22.690605 10.135027-27.844567 18.228229-5.153962 8.117902-7.755642 12.744941-5.442123 35.616675 2.31352 22.863502 5.442123 50.930364 5.442123 50.930364s5.845548-3.186235 17.421379-4.042484c10.966577-0.83155 69.833713-2.585214 75.901555-2.856909 5.977278 0.263461 64.943212 2.025359 75.918023 2.856909 11.567598 0.856249 17.421379 4.042484 17.421378 4.042484s3.12037-28.058629 5.43389-50.930364-0.279928-27.498774-5.425656-35.616675z" fill="#202016" /><path d="M634.88 292.458517v104.190713s-0.864482 12.448547-9.838633 12.448547-2.634613-41.964446-3.202702-56.150191c-0.559855-14.169278 4.297713-58.17555 4.297713-58.17555l8.743622-2.313519z" fill="#2E3C42" /><path d="M628.705126 264.383421l9.072948 8.463695s28.223292 13.461226 28.881946 15.404253c0.642187 1.959493 0 6.73473 0 6.734729l-25.40755-7.376916s-4.273013 1.226742-6.364237 4.849335c-2.091224 3.61436-8.743622 2.305286-8.743622 2.305286l2.560515-30.380382zM639.383542 384.208917h2.585214v20.706412h-2.585214z" fill="#201E1E" /><path d="M615.548527 333.846641s1.506669 95.809351 0 98.122871c-1.514903 2.321753-3.540261 4.635272-4.552941 4.923433-1.004446 0.288161 6.224273 1.160876 7.376917-10.99951 1.160876-12.152153 0-107.080555 0-107.080555l-2.823976 15.033761z" fill="#78C6B5" /><path d="M606.368547 242.540832c-5.244527-3.729624-18.845717-9.410509-39.939088-11.584064-10.060929-1.728965-43.413483-2.305286-43.413483-2.305287h-1.589001s-33.360788 0.576322-43.413484 2.305287c-21.093371 2.181789-34.694561 7.85444-39.939087 11.584064-5.260993 3.713158-14.910263 10.983043-13.181298 30.81674 1.737198 19.81723 5.787916 57.895622 5.787915 57.895622s11.147707-4.495309 26.774255-4.495309c14.852631 0 60.225608-2.486416 64.75385-2.725177 4.437676 0.238762 49.909451 2.725178 64.770315 2.725177 15.618316 0 26.766022 4.495309 26.766022 4.495309s4.050718-38.078392 5.787916-57.895622c1.737198-19.833696-7.912072-27.103582-13.164832-30.81674z" fill="#3D4852" /><path d="M521.715136 453.062882H634.056683c3.507329 0 6.347771 1.572535 6.347771 3.532029v428.939706c0 1.943027-2.848675 3.523795-6.347771 3.523795H521.715136V453.062882zM652.103783 627.984724v93.627561l-6.5783 12.250951V617.553303z" fill="#48B897" /><path d="M423.411136 875.89358c0 2.148856-1.45727 3.902521-3.260334 3.902521-1.803063 0-3.260334-1.753664-3.260334-3.902521V466.408844c0-2.165323 1.45727-3.910754 3.260334-3.910754 1.803063 0 3.260334 1.745431 3.260334 3.910754v409.484736zM440.042131 875.89358c0 2.148856-1.45727 3.902521-3.260334 3.902521-1.803063 0-3.260334-1.753664-3.260334-3.902521V466.408844c0-2.165323 1.45727-3.910754 3.260334-3.910754 1.803063 0 3.260334 1.745431 3.260334 3.910754v409.484736zM458.105696 875.89358c0 2.148856-1.45727 3.902521-3.260333 3.902521-1.79483 0-3.260334-1.753664-3.260334-3.902521V466.408844c0-2.165323 1.465504-3.910754 3.260334-3.910754 1.803063 0 3.260334 1.745431 3.260333 3.910754v409.484736zM474.440297 875.89358c0 2.148856-1.465504 3.902521-3.260333 3.902521-1.803063 0-3.260334-1.753664-3.260334-3.902521V466.408844c0-2.165323 1.45727-3.910754 3.260334-3.910754 1.79483 0 3.260334 1.745431 3.260333 3.910754v409.484736zM494.051698 875.89358c0 2.148856-1.45727 3.902521-3.260333 3.902521-1.803063 0-3.260334-1.753664-3.260334-3.902521V466.408844c0-2.165323 1.45727-3.910754 3.260334-3.910754 1.803063 0 3.260334 1.745431 3.260333 3.910754v409.484736zM511.637741 875.794782c0 2.165323-1.465504 3.910754-3.260334 3.910754-1.803063 0-3.260334-1.745431-3.260334-3.910754V466.334746c0-2.165323 1.45727-3.918987 3.260334-3.918987 1.79483 0 3.260334 1.753664 3.260334 3.918987v409.460036zM621.015349 875.89358c0 2.148856 1.465504 3.902521 3.260333 3.902521 1.803063 0 3.260334-1.753664 3.260334-3.902521V466.408844c0-2.165323-1.45727-3.910754-3.260334-3.910754-1.803063 0-3.260334 1.745431-3.260333 3.910754v409.484736zM599.617351 875.89358c0 2.148856 1.465504 3.902521 3.260333 3.902521 1.79483 0 3.252101-1.753664 3.252101-3.902521V466.408844c0-2.165323-1.45727-3.910754-3.252101-3.910754-1.803063 0-3.260334 1.745431-3.260333 3.910754v409.484736zM581.339723 875.89358c0 2.148856 1.45727 3.902521 3.260333 3.902521 1.803063 0 3.252101-1.753664 3.252101-3.902521V466.408844c0-2.165323-1.449037-3.910754-3.252101-3.910754-1.803063 0-3.260334 1.745431-3.260333 3.910754v409.484736zM561.744788 875.89358c0 2.148856 1.45727 3.902521 3.2521 3.902521 1.803063 0 3.260334-1.753664 3.260334-3.902521V466.408844c0-2.165323-1.465504-3.910754-3.260334-3.910754-1.79483 0-3.252101 1.745431-3.2521 3.910754v409.484736zM540.618484 875.794782c0 2.165323 1.45727 3.910754 3.252101 3.910754 1.803063 0 3.260334-1.745431 3.260334-3.910754V466.334746c0-2.181789-1.465504-3.918987-3.260334-3.918987-1.79483 0-3.252101 1.737198-3.252101 3.918987v409.460036zM522.727815 875.794782c0 2.165323 1.45727 3.910754 3.260334 3.910754 1.803063 0 3.260334-1.745431 3.260333-3.910754V466.334746c0-2.181789-1.45727-3.918987-3.260333-3.918987-1.803063 0-3.260334 1.737198-3.260334 3.918987v409.460036z" fill="#78C6B5" /><path d="M522.579618 889.050179h0.271695v5.72205h-0.271695z" fill="#CFCECE" /><path d="M611.777737 247.464265a36.497624 36.497624 0 0 0-5.853781-4.923433c-5.244527-3.729624-18.845717-9.410509-39.939088-11.584064-10.060929-1.728965-43.413483-2.305286-43.413483-2.305287h-1.589001s-33.360788 0.576322-43.413483 2.305287c-21.101604 2.181789-34.702794 7.85444-39.947321 11.584064-5.244527 3.713158-14.910263 10.983043-13.173065 30.81674 0.880949 10.077395 2.362919 24.864161 3.606126 36.958681 96.089278-59.237628 156.891208-64.597419 183.723096-62.851988z" fill="#303F43" /></svg>