<?xml version="1.0" standalone="no"?><!DOCTYPE svg PUBLIC "-//W3C//DTD SVG 1.1//EN" "http://www.w3.org/Graphics/SVG/1.1/DTD/svg11.dtd"><svg class="icon" height="512" viewBox="0 0 1024 1024" version="1.1" xmlns="http://www.w3.org/2000/svg"><path d="M504.63955 222.723602s-30.248651-1.012679-38.210123 11.863992-23.58802 35.600209-23.58802 35.600209 16.062907-33.006762 23.736217-40.087284c7.673311-7.088756 26.197934-8.974151 38.061926-7.376917z" fill="#D8684A" /><path d="M633.73559 187.518585c-19.306774-12.654376-37.03278-24.666565-101.73723-27.161214v-0.032933l-0.370493 0.016467-0.354026-0.016467v0.032933c-64.70445 2.494649-82.430456 14.506838-101.73723 27.161214-19.537303 12.802573-21.274501 31.047268-21.2745 31.047268v40.597741c0 4.520008 1.852462 5.754983 3.490862 5.969045h1.14441a6.232507 6.232507 0 0 0 1.342006-0.321093v0.321093h0.016466c-0.016466-0.238762-0.016466-0.502223-0.016466-0.757451v-40.605974s1.728965-18.244695 21.266267-31.039035c18.730452-12.283883 35.987168-23.958513 96.130445-26.922452 60.159743 2.947473 77.399992 14.630336 96.138677 26.922452 19.545536 12.810806 21.274501 31.039035 21.2745 31.039035v40.605974l-0.016466 0.757451h0.016466v-0.321093s0.559855 0.222295 1.342006 0.321093h1.14441c1.6384-0.205829 3.490862-1.449037 3.490863-5.969045v-40.597741s-1.753664-18.244695-21.290967-31.047268z" fill="#3D2C25" /><path d="M558.624418 222.723602s30.248651-1.012679 38.210123 11.863992 23.58802 35.600209 23.58802 35.600209-16.062907-33.006762-23.736217-40.087284c-7.673311-7.088756-26.197934-8.974151-38.061926-7.376917z" fill="#D8684A" /><path d="M532.138324 460.20927h-116.087639v14.943196H647.229749v-14.943196z" fill="#434448" /><path d="M656.895485 280.462794l-7.961471-9.295244-0.041166-6.364237s5.977278 2.494649 5.977279-5.647952v-40.597741s-1.737198-18.244695-21.274501-31.047268c-19.282074-12.63791-36.983381-24.633632-101.449069-27.161214v-0.032933l-0.51869 0.016466-0.502223-0.016466v0.032933c-64.465688 2.527582-82.166995 14.523305-101.449069 27.161214-19.537303 12.802573-21.274501 31.047268-21.274501 31.047268v40.597741c0 8.134368 5.977278 5.647952 5.977279 5.647952l-0.041166 6.364237-7.961471 9.295244v78.733765l8.406062 11.28767s-0.296394 79.598247-0.584555 89.132253c-0.288161 9.558706 13.897584 7.821508 13.897584 7.821508h207.105286s14.185745 1.737198 13.897584-7.821508c-0.288161-9.534006-0.576322-89.132253-0.576321-89.132253l8.397829-11.28767v-78.733765z" fill="#D14C32" /><path d="M662.090613 921.653516v-62.415631c0-5.376257-3.606127-4.174215-3.606127-4.174215h-3.548494l-122.945865-0.115264v-0.008233l-123.670384 0.123497h-3.548495s-3.606127-1.202042-3.606126 4.174215v62.415631s-1.16911 10.79368 11.279437 10.79368h238.358384c12.448547 0 11.28767-10.79368 11.28767-10.79368z" fill="#3D2C25" /><path d="M647.147417 475.152466H416.16595c-4.322412 0-7.837974 3.762557-7.837974 8.381363V914.07077c0 4.635272 3.515562 8.381363 7.837974 8.381363H647.147417c4.297713 0 7.788575-3.74609 7.788575-8.381363V483.525596c0-4.610573-3.482629-8.37313-7.788575-8.37313z" fill="#2E3C42" /><path d="M451.453298 187.197491s-25.399317 15.190191-26.049736 41.239928 0 68.8128 1.086778 81.401311c1.086778 12.596744 3.474396 32.998529 3.474396 32.998528s0.222295-89.140486 0.222295-105.713849c0-20.047759 1.95126-28.445588 21.266267-49.925918z" fill="#D8684A" /><path d="M418.965226 320.121954v104.190713s0.864482 12.448547 9.838633 12.448547 2.634613-41.964446 3.202702-56.141958c0.559855-14.193978-4.289479-58.183783-4.28948-58.183783l-8.751855-2.313519z" fill="#2E3C42" /><path d="M425.148334 292.046858L416.075385 300.510553s-28.223292 13.452993-28.873713 15.412486c-0.65042 1.943027 0 6.718263 0 6.718264l25.399317-7.376917s4.281246 1.234975 6.364237 4.857568c2.099457 3.61436 8.751855 2.305286 8.751855 2.305286l-2.568747-30.380382zM411.87647 411.872354h2.593448v20.689945h-2.593448z" fill="#201E1E" /><path d="M438.304933 361.510078s-1.506669 95.801118 0 98.106404c1.506669 2.329986 3.532028 4.635272 4.544707 4.9399 1.012679 0.271694-6.224273 1.160876-7.376916-11.007743-1.160876-12.152153 0-107.088788 0-107.088788l2.832209 15.050227z" fill="#D8684A" /><path d="M532.138324 480.734553H419.796776c-3.515562 0-6.356004 1.564302-6.356004 3.515562v428.947939c0 1.934794 2.848675 3.515562 6.356004 3.515562h112.349781V480.734553z" fill="#C44532" /><path d="M401.749676 655.639928v93.635795l6.5783 12.25095V645.208507z" fill="#3D2C25" /><path d="M611.802436 187.197491s25.399317 15.190191 26.049737 41.239928c0.658653 26.049737 0 68.8128-1.078545 81.401311-1.086778 12.596744-3.474396 32.998529-3.474396 32.998528s-0.214062-89.140486-0.214062-105.713849c0-20.047759-1.95126-28.445588-21.282734-49.925918z" fill="#D8684A" /><path d="M624.959035 274.963039c-5.145729-8.101435-13.57649-12.876671-27.836333-18.236462-23.670352-6.257206-58.620141-6.644165-64.984378-6.660631 0 0-39.873222-0.255228-65.997058 6.660631-14.25161 5.351558-22.690605 10.126794-27.844567 18.236462-5.153962 8.084969-7.755642 12.736708-5.442122 35.600209 2.31352 22.847035 5.442123 50.94683 5.442122 50.94683s5.845548-3.186235 17.421379-4.067184c10.966577-0.815083 69.833713-2.576981 75.901556-2.848675 5.985512 0.271694 64.934979 2.033592 75.918022 2.865142 11.575831 0.864482 17.413146 4.050718 17.413146 4.050717s3.136836-28.091562 5.450356-50.94683c2.321753-22.863502-0.279928-27.507007-5.442123-35.600209z" fill="#202016" /><path d="M644.298742 320.121954v104.198947s-0.872716 12.448547-9.838633 12.448546c-8.974151 0-2.634613-41.972679-3.202702-56.150191-0.559855-14.193978 4.289479-58.183783 4.289479-58.183783l8.751856-2.313519z" fill="#2E3C42" /><path d="M638.115634 292.046858l9.072949 8.463695s28.231526 13.452993 28.873712 15.412486c0.65042 1.943027 0 6.718263 0 6.718264l-25.391083-7.376917s-4.281246 1.234975-6.364237 4.857568c-2.10769 3.61436-8.751855 2.305286-8.751855 2.305286l2.560514-30.380382zM648.79405 411.872354h2.593447v20.689945h-2.593447z" fill="#201E1E" /><path d="M624.959035 361.510078s1.514903 95.801118 0 98.106404c-1.498436 2.329986-3.523795 4.635272-4.536474 4.9399-1.012679 0.271694 6.21604 1.160876 7.376916-10.99951 1.160876-12.160386 0-107.097021 0-107.097021l-2.840442 15.050227z" fill="#D8684A" /><path d="M615.787288 270.187803c-5.244527-3.721391-18.845717-9.418742-39.94732-11.575831-10.060929-1.737198-43.413483-2.329986-43.413484-2.329986h-1.589001s-33.360788 0.592788-43.413483 2.329986c-21.101604 2.165323-34.694561 7.846207-39.947321 11.575831-5.244527 3.721391-14.910263 10.99951-13.173065 30.824973s5.787916 57.887389 5.787916 57.887389 11.147707-4.487075 26.774255-4.487076c14.844398 0 60.233841-2.478183 64.753849-2.733411 4.437676 0.238762 49.917684 2.733411 64.770316 2.733411 15.626549 0 26.774255 4.487075 26.774255 4.487076s4.050718-38.061926 5.787916-57.887389-7.920306-27.095349-13.164833-30.824973z" fill="#3D4852" /><path d="M531.125644 480.734553h112.341548c3.523795 0 6.364237 1.564302 6.364237 3.515562v428.947939c0 1.934794-2.848675 3.515562-6.364237 3.515562H531.125644V480.734553z" fill="#C44532" /><path d="M661.522525 655.639928v93.635795l-6.586533 12.25095V645.208507z" fill="#3D2C25" /><path d="M432.829877 903.532318c0 2.165323-1.45727 3.910754-3.260333 3.910753-1.79483 0-3.260334-1.745431-3.260334-3.910753V494.072281c0-2.165323 1.465504-3.918987 3.260334-3.918987 1.803063 0 3.260334 1.753664 3.260333 3.918987v409.460037zM449.452639 903.532318c0 2.165323-1.45727 3.910754-3.260333 3.910753-1.79483 0-3.260334-1.745431-3.260334-3.910753V494.072281c0-2.165323 1.465504-3.918987 3.260334-3.918987 1.803063 0 3.260334 1.753664 3.260333 3.918987v409.460037zM467.532671 903.532318c0 2.165323-1.465504 3.910754-3.260333 3.910753-1.803063 0-3.260334-1.745431-3.260334-3.910753V494.072281c0-2.165323 1.45727-3.918987 3.260334-3.918987 1.803063 0 3.260334 1.753664 3.260333 3.918987v409.460037zM483.859039 903.532318c0 2.165323-1.45727 3.910754-3.260333 3.910753-1.803063 0-3.260334-1.745431-3.260334-3.910753V494.072281c0-2.165323 1.45727-3.918987 3.260334-3.918987 1.803063 0 3.260334 1.753664 3.260333 3.918987v409.460037zM503.47044 903.532318c0 2.165323-1.45727 3.910754-3.260333 3.910753-1.803063 0-3.260334-1.745431-3.260334-3.910753V494.072281c0-2.165323 1.45727-3.918987 3.260334-3.918987 1.803063 0 3.260334 1.753664 3.260333 3.918987v409.460037zM521.056482 903.441753c0 2.165323-1.45727 3.918987-3.260333 3.918987-1.803063 0-3.260334-1.753664-3.260334-3.918987V493.973483c0-2.148856 1.45727-3.902521 3.260334-3.90252 1.803063 0 3.260334 1.753664 3.260333 3.90252v409.46827zM630.442324 903.532318c0 2.165323 1.45727 3.910754 3.260333 3.910753 1.79483 0 3.260334-1.745431 3.260334-3.910753V494.072281c0-2.165323-1.465504-3.918987-3.260334-3.918987-1.803063 0-3.260334 1.753664-3.260333 3.918987v409.460037zM609.036092 903.532318c0 2.165323 1.45727 3.910754 3.260334 3.910753 1.79483 0 3.260334-1.745431 3.260334-3.910753V494.072281c0-2.165323-1.465504-3.918987-3.260334-3.918987-1.803063 0-3.260334 1.753664-3.260334 3.918987v409.460037zM590.750231 903.532318c0 2.165323 1.45727 3.910754 3.260334 3.910753 1.803063 0 3.260334-1.745431 3.260333-3.910753V494.072281c0-2.165323-1.45727-3.918987-3.260333-3.918987-1.803063 0-3.260334 1.753664-3.260334 3.918987v409.460037zM571.16353 903.532318c0 2.165323 1.45727 3.910754 3.260333 3.910753 1.79483 0 3.252101-1.745431 3.252101-3.910753V494.072281c0-2.165323-1.45727-3.918987-3.252101-3.918987-1.803063 0-3.260334 1.753664-3.260333 3.918987v409.460037zM550.028993 903.441753c0 2.165323 1.45727 3.918987 3.260334 3.918987 1.803063 0 3.260334-1.753664 3.260333-3.918987V493.973483c0-2.148856-1.45727-3.902521-3.260333-3.90252-1.803063 0-3.260334 1.753664-3.260334 3.90252v409.46827zM532.138324 903.441753c0 2.165323 1.45727 3.918987 3.260333 3.918987 1.79483 0 3.260334-1.753664 3.260334-3.918987V493.973483c0-2.148856-1.465504-3.902521-3.260334-3.90252-1.803063 0-3.260334 1.753664-3.260333 3.90252v409.46827z" fill="#D8684A" /><path d="M621.196478 275.127703a37.427972 37.427972 0 0 0-5.845547-4.9399c-5.25276-3.721391-18.85395-9.418742-39.947321-11.575831-10.060929-1.737198-43.413483-2.329986-43.413483-2.329986h-1.589001s-33.360788 0.592788-43.413484 2.329986c-21.093371 2.165323-34.694561 7.85444-39.939087 11.575831-5.25276 3.721391-14.910263 10.99951-13.181299 30.824973 0.880949 10.077395 2.362919 24.864161 3.606127 36.958681 96.089278-59.229395 156.882975-64.605652 183.723095-62.843754z" fill="#303F43" /><path d="M497.534328 231.870649s-30.248651-1.086778-38.243056 11.781661c-7.994404 12.860205-23.670352 35.534344-23.670351 35.534343s16.145238-32.94913 23.835015-40.029652c7.689777-7.064056 26.2144-8.908285 38.078392-7.286352zM566.511791 231.697753s30.248651-0.930348 38.168957 11.96279c7.936772 12.901371 23.497455 35.666074 23.497455 35.666074s-15.972342-33.047928-23.629186-40.15315-26.165001-9.040016-38.037226-7.475714z" fill="#D8684A" /></svg>