<svg height="512pt" viewBox="0 -52 512.00003 512" width="512pt" xmlns="http://www.w3.org/2000/svg" xmlns:xlink="http://www.w3.org/1999/xlink"><linearGradient id="a"><stop offset="0" stop-color="#c08552"/><stop offset="1" stop-color="#895738"/></linearGradient><linearGradient id="b" gradientUnits="userSpaceOnUse" x1="257.075812423" x2="257.075812423" xlink:href="#a" y1="98.5328697328" y2="133.9497320098"/><linearGradient id="c"><stop offset="0" stop-color="#895738" stop-opacity="0"/><stop offset="1" stop-color="#5e3023"/></linearGradient><linearGradient id="d" gradientUnits="userSpaceOnUse" x1="112.735922951" x2="24.5305328934" xlink:href="#c" y1="133.468953764" y2="50.6419754292"/><linearGradient id="e" gradientUnits="userSpaceOnUse" x1="253.1116256216" x2="164.906235564" xlink:href="#c" y1="133.468953764" y2="50.6419754292"/><linearGradient id="f" gradientUnits="userSpaceOnUse" x1="393.4872279" x2="305.2818378424" xlink:href="#c" y1="133.468953764" y2="50.6419754292"/><linearGradient id="g" gradientUnits="userSpaceOnUse" x1="257.075812423" x2="257.075812423" xlink:href="#a" y1="362.0733374826" y2="397.4901997596"/><linearGradient id="h" gradientUnits="userSpaceOnUse" x1="112.735922951" x2="24.5305328934" xlink:href="#c" y1="397.0094215138" y2="314.182443179"/><linearGradient id="i" gradientUnits="userSpaceOnUse" x1="253.1116256216" x2="164.906235564" xlink:href="#c" y1="397.0094215138" y2="314.182443179"/><linearGradient id="j" gradientUnits="userSpaceOnUse" x1="393.4872279" x2="305.2818378424" xlink:href="#c" y1="397.0094215138" y2="314.182443179"/><linearGradient id="k" gradientTransform="matrix(-1.003922 0 0 1.003922 -1624.345098 -51.616114)" gradientUnits="userSpaceOnUse" x1="-1889.2089" x2="-1802.8225" y1="219.7506" y2="437.1405"><stop offset="0" stop-color="#acc130"/><stop offset=".3485" stop-color="#a9bd31"/><stop offset=".6956" stop-color="#a2b135"/><stop offset="1" stop-color="#97a03b"/></linearGradient><linearGradient id="l"><stop offset="0" stop-color="#97a03b" stop-opacity="0"/><stop offset=".3281" stop-color="#7e8545" stop-opacity=".329412"/><stop offset=".7568" stop-color="#626751" stop-opacity=".756863"/><stop offset="1" stop-color="#575c55"/></linearGradient><linearGradient id="m" gradientTransform="matrix(-1.003922 0 0 1.003922 -1624.345098 -51.616114)" gradientUnits="userSpaceOnUse" x1="-1694.4419" x2="-1618.3789" xlink:href="#l" y1="413.6206" y2="329.106"/><linearGradient id="n" gradientTransform="matrix(-1.003922 0 0 1.003922 -1624.345098 -51.616114)" gradientUnits="userSpaceOnUse" x1="-1929.5641" x2="-1983.1777" xlink:href="#l" y1="381.7813" y2="232.925"/><linearGradient id="o" gradientTransform="matrix(-1.003922 0 0 1.003922 -1624.345098 -51.616114)" gradientUnits="userSpaceOnUse" x1="-1871.0416" x2="-1886.5406" xlink:href="#l" y1="306.634" y2="216.7397"/><linearGradient id="p" gradientUnits="userSpaceOnUse" x1="147.6203839166" x2="104.1493566102" xlink:href="#l" y1="298.9384899622" y2="178.2427706498"/><linearGradient id="q" gradientTransform="matrix(-.869597 .501559 .501559 .869597 -633.520791 -146.208516)" gradientUnits="userSpaceOnUse" x1="-512.6638" x2="-590.7604" xlink:href="#l" y1="850.7755" y2="772.6788"/><linearGradient id="r"><stop offset="0" stop-color="#ffe548"/><stop offset="1" stop-color="#ffb211"/></linearGradient><linearGradient id="s" gradientTransform="matrix(-1.003922 0 0 1.003922 -1624.345098 -51.616114)" gradientUnits="userSpaceOnUse" x1="-1966.9679" x2="-1951.1576" xlink:href="#r" y1="397.416" y2="503.872"/><linearGradient id="t"><stop offset="0" stop-color="#ffb211" stop-opacity="0"/><stop offset=".1677" stop-color="#ffac13" stop-opacity=".168627"/><stop offset=".3845" stop-color="#ff9c1b" stop-opacity=".384314"/><stop offset=".6285" stop-color="#ff8226" stop-opacity=".627451"/><stop offset=".8903" stop-color="#ff5d36" stop-opacity=".890196"/><stop offset="1" stop-color="#ff4b3e"/></linearGradient><linearGradient id="u" gradientTransform="matrix(-1.003922 0 0 1.003922 -1624.345098 -51.616114)" gradientUnits="userSpaceOnUse" x1="-2064.3528" x2="-2084.9775" xlink:href="#t" y1="442.5215" y2="421.8967"/><linearGradient id="v"><stop offset="0" stop-color="#ff4b3e"/><stop offset=".1888" stop-color="#fb4a3c"/><stop offset=".3876" stop-color="#ee4635"/><stop offset=".5911" stop-color="#d9402a"/><stop offset=".7963" stop-color="#bc381a"/><stop offset="1" stop-color="#972e07"/></linearGradient><linearGradient id="w" gradientTransform="matrix(-1.003922 0 0 1.003922 -1624.345098 -51.616114)" gradientUnits="userSpaceOnUse" x1="-2085.7612" x2="-2076.0752" xlink:href="#v" y1="420.8747" y2="431.2286"/><linearGradient id="x" gradientTransform="matrix(-1.003922 0 0 1.003922 -1624.345098 -51.616114)" gradientUnits="userSpaceOnUse" x1="-2006.7617" x2="-2027.3865" xlink:href="#t" y1="405.1823" y2="384.5576"/><linearGradient id="y" gradientTransform="matrix(-1.003922 0 0 1.003922 -1624.345098 -51.616114)" gradientUnits="userSpaceOnUse" x1="-2028.1703" x2="-2018.4844" xlink:href="#v" y1="383.5355" y2="393.8894"/><linearGradient id="z" gradientTransform="matrix(-1.003922 0 0 1.003922 -1624.345098 -51.616114)" gradientUnits="userSpaceOnUse" x1="-1967.5239" x2="-1988.1488" xlink:href="#t" y1="445.6859" y2="425.0611"/><linearGradient id="A" gradientTransform="matrix(-1.003922 0 0 1.003922 -1624.345098 -51.616114)" gradientUnits="userSpaceOnUse" x1="-1988.9325" x2="-1979.2466" xlink:href="#v" y1="424.039" y2="434.3929"/><linearGradient id="B" gradientTransform="matrix(-1.003922 0 0 1.003922 -1624.345098 -51.616114)" gradientUnits="userSpaceOnUse" x1="-1881.2057" x2="-1901.8304" xlink:href="#t" y1="447.0363" y2="426.4116"/><linearGradient id="C" gradientTransform="matrix(-1.003922 0 0 1.003922 -1624.345098 -51.616114)" gradientUnits="userSpaceOnUse" x1="-1902.6141" x2="-1892.9283" xlink:href="#v" y1="425.3895" y2="435.7434"/><linearGradient id="D" gradientTransform="matrix(-1.003922 0 0 1.003922 -1624.345098 -51.616114)" gradientUnits="userSpaceOnUse" x1="-1912.2162" x2="-1932.8409" xlink:href="#l" y1="362.865" y2="342.2402"/><linearGradient id="E"><stop offset="0" stop-color="#ffb211"/><stop offset=".1645" stop-color="#ffac14"/><stop offset=".3888" stop-color="#ff9a1b"/><stop offset=".6475" stop-color="#ff7e28"/><stop offset=".9301" stop-color="#ff5639"/><stop offset="1" stop-color="#ff4b3e"/></linearGradient><linearGradient id="F" gradientTransform="matrix(-1.003922 0 0 1.003922 -1624.345098 -51.616114)" gradientUnits="userSpaceOnUse" x1="-1933.6246" x2="-1923.9388" xlink:href="#E" y1="341.2182" y2="351.5721"/><linearGradient id="G" gradientTransform="matrix(-1.003922 0 0 1.003922 -1624.345098 -51.616114)" gradientUnits="userSpaceOnUse" x1="-1825.113" x2="-1845.7379" xlink:href="#l" y1="394.4762" y2="373.8514"/><linearGradient id="H" gradientTransform="matrix(-1.003922 0 0 1.003922 -1624.345098 -51.616114)" gradientUnits="userSpaceOnUse" x1="-1846.5216" x2="-1836.8357" xlink:href="#r" y1="372.8294" y2="383.1833"/><linearGradient id="I" gradientTransform="matrix(-1.003922 0 0 1.003922 -1624.345098 -51.616114)" gradientUnits="userSpaceOnUse" x1="-1832.1797" x2="-1852.8046" xlink:href="#l" y1="323.2822" y2="302.6574"/><linearGradient id="J" gradientTransform="matrix(-1.003922 0 0 1.003922 -1624.345098 -51.616114)" gradientUnits="userSpaceOnUse" x1="-1853.5883" x2="-1843.9023" xlink:href="#r" y1="301.6354" y2="311.9893"/><linearGradient id="K" gradientTransform="matrix(-1.003922 0 0 1.003922 -1624.345098 -51.616114)" gradientUnits="userSpaceOnUse" x1="-1751.124" x2="-1771.7488" xlink:href="#l" y1="348.8593" y2="328.2345"/><linearGradient id="L" gradientTransform="matrix(-1.003922 0 0 1.003922 -1624.345098 -51.616114)" gradientUnits="userSpaceOnUse" x1="-1772.5325" x2="-1762.8467" xlink:href="#E" y1="327.2125" y2="337.5664"/><linearGradient id="M" gradientTransform="matrix(-1.003922 0 0 1.003922 -1624.345098 -51.616114)" gradientUnits="userSpaceOnUse" x1="-1696.9111" x2="-1717.5359" xlink:href="#l" y1="422.9538" y2="402.329"/><linearGradient id="N" gradientTransform="matrix(-1.003922 0 0 1.003922 -1624.345098 -51.616114)" gradientUnits="userSpaceOnUse" x1="-1718.3196" x2="-1708.6337" xlink:href="#r" y1="401.307" y2="411.6609"/><linearGradient id="O" gradientTransform="matrix(-1.003922 0 0 1.003922 -1624.345098 -51.616114)" gradientUnits="userSpaceOnUse" x1="-1741.1041" x2="-1761.7289" xlink:href="#l" y1="283.4135" y2="262.7887"/><linearGradient id="P" gradientTransform="matrix(-1.003922 0 0 1.003922 -1624.345098 -51.616114)" gradientUnits="userSpaceOnUse" x1="-1762.5126" x2="-1752.8268" xlink:href="#r" y1="261.7667" y2="272.1206"/><linearGradient id="Q"><stop offset="0" stop-color="#dab49d"/><stop offset=".3389" stop-color="#d9b29a"/><stop offset=".5402" stop-color="#d6ad92"/><stop offset=".7054" stop-color="#d1a484"/><stop offset=".8511" stop-color="#ca9870"/><stop offset=".9827" stop-color="#c18856"/><stop offset="1" stop-color="#c08552"/></linearGradient><linearGradient id="R" gradientUnits="userSpaceOnUse" x1="0" x2="86.0539852116" xlink:href="#Q" y1="204.383996" y2="204.383996"/><linearGradient id="S"><stop offset="0" stop-color="#dab49d" stop-opacity="0"/><stop offset=".4385" stop-color="#ce9e7a" stop-opacity=".439216"/><stop offset="1" stop-color="#c08552"/></linearGradient><linearGradient id="T" gradientUnits="userSpaceOnUse" x1="63.3692633074" x2="39.998762285" xlink:href="#S" y1="111.41077958" y2="88.0403789498"/><linearGradient id="U" gradientUnits="userSpaceOnUse" x1="39.110793276" x2="50.0860701488" xlink:href="#a" y1="86.8822545306" y2="98.6144885914"/><linearGradient id="V" gradientUnits="userSpaceOnUse" x1="63.3692633074" x2="39.998762285" xlink:href="#S" y1="377.5669661008" y2="354.1964650784"/><linearGradient id="W" gradientUnits="userSpaceOnUse" x1="39.110793276" x2="50.0860701488" xlink:href="#a" y1="353.0384410514" y2="364.7706751122"/><linearGradient id="X"><stop offset="0" stop-color="#c08552" stop-opacity="0"/><stop offset="1" stop-color="#c08552"/></linearGradient><linearGradient id="Y" gradientUnits="userSpaceOnUse" x1="73.0787953226" x2="-48.4725667104" xlink:href="#X" y1="208.8420120332" y2="195.933984526"/><linearGradient id="Z" gradientUnits="userSpaceOnUse" x1="74.791687039" x2="-48.9109794478" xlink:href="#X" y1="201.5133814332" y2="220.8755230862"/><linearGradient id="aa" gradientUnits="userSpaceOnUse" x1="53.957795734" x2="-11.6583454016" xlink:href="#Q" y1="172.7324435762" y2="174.8838484222"/><linearGradient id="ab" gradientUnits="userSpaceOnUse" x1="43.0269926058" x2="43.0269926058" xlink:href="#X" y1="388.7440312956" y2="421.0546585124"/><linearGradient id="ac" gradientUnits="userSpaceOnUse" x1="141.9820782628" x2="228.0360634744" xlink:href="#Q" y1="204.383996" y2="204.383996"/><linearGradient id="ad" gradientUnits="userSpaceOnUse" x1="205.351241178" x2="181.9808405478" xlink:href="#S" y1="111.41077958" y2="88.0403789498"/><linearGradient id="ae" gradientUnits="userSpaceOnUse" x1="181.0927711466" x2="192.0681484116" xlink:href="#a" y1="86.8822545306" y2="98.6144885914"/><linearGradient id="af" gradientUnits="userSpaceOnUse" x1="205.351241178" x2="181.9808405478" xlink:href="#S" y1="377.5669661008" y2="354.1964650784"/><linearGradient id="ag" gradientUnits="userSpaceOnUse" x1="181.0927711466" x2="192.0681484116" xlink:href="#a" y1="353.0384410514" y2="364.7706751122"/><linearGradient id="ah" gradientUnits="userSpaceOnUse" x1="215.0608735854" x2="93.5095115524" xlink:href="#X" y1="208.8420120332" y2="195.933984526"/><linearGradient id="ai" gradientUnits="userSpaceOnUse" x1="216.7736649096" x2="93.0709984228" xlink:href="#X" y1="201.5133814332" y2="220.8755230862"/><linearGradient id="aj" gradientUnits="userSpaceOnUse" x1="195.9398739968" x2="130.3237328612" xlink:href="#Q" y1="172.7324435762" y2="174.8838484222"/><linearGradient id="ak" gradientUnits="userSpaceOnUse" x1="185.0090708686" x2="185.0090708686" xlink:href="#X" y1="388.7440312956" y2="421.0546585124"/><linearGradient id="al" gradientUnits="userSpaceOnUse" x1="283.9641565256" x2="370.0181417372" xlink:href="#Q" y1="204.383996" y2="204.383996"/><linearGradient id="am" gradientUnits="userSpaceOnUse" x1="347.3333194408" x2="323.9629188106" xlink:href="#S" y1="111.41077958" y2="88.0403789498"/><linearGradient id="an" gradientUnits="userSpaceOnUse" x1="323.0748494094" x2="334.0501262822" xlink:href="#a" y1="86.8822545306" y2="98.6144885914"/><linearGradient id="ao" gradientUnits="userSpaceOnUse" x1="347.3333194408" x2="323.9629188106" xlink:href="#S" y1="377.5669661008" y2="354.1964650784"/><linearGradient id="ap" gradientUnits="userSpaceOnUse" x1="323.0748494094" x2="334.0501262822" xlink:href="#a" y1="353.0384410514" y2="364.7706751122"/><linearGradient id="aq" gradientUnits="userSpaceOnUse" x1="357.0429518482" x2="235.4915898152" xlink:href="#X" y1="208.8420120332" y2="195.933984526"/><linearGradient id="ar" gradientUnits="userSpaceOnUse" x1="358.7557431724" x2="235.0530766856" xlink:href="#X" y1="201.5133814332" y2="220.8755230862"/><linearGradient id="as" gradientUnits="userSpaceOnUse" x1="337.9219522596" x2="272.3057107318" xlink:href="#Q" y1="172.7324435762" y2="174.8838484222"/><linearGradient id="at" gradientUnits="userSpaceOnUse" x1="326.9911491314" x2="326.9911491314" xlink:href="#X" y1="388.7440312956" y2="421.0546585124"/><linearGradient id="au" gradientUnits="userSpaceOnUse" x1="425.9461343962" x2="512.00022" xlink:href="#Q" y1="204.383996" y2="204.383996"/><linearGradient id="av" gradientUnits="userSpaceOnUse" x1="489.3153977036" x2="465.9449970734" xlink:href="#S" y1="111.41077958" y2="88.0403789498"/><linearGradient id="aw" gradientUnits="userSpaceOnUse" x1="465.0569276722" x2="476.032204545" xlink:href="#a" y1="86.8822545306" y2="98.6144885914"/><linearGradient id="ax" gradientUnits="userSpaceOnUse" x1="489.3153977036" x2="465.9449970734" xlink:href="#S" y1="377.5669661008" y2="354.1964650784"/><linearGradient id="ay" gradientUnits="userSpaceOnUse" x1="465.0569276722" x2="476.032204545" xlink:href="#a" y1="353.0384410514" y2="364.7706751122"/><linearGradient id="az" gradientUnits="userSpaceOnUse" x1="499.0249297188" x2="377.473668078" xlink:href="#X" y1="208.8420120332" y2="195.933984526"/><linearGradient id="aA" gradientUnits="userSpaceOnUse" x1="500.7378214352" x2="377.0351549484" xlink:href="#X" y1="201.5133814332" y2="220.8755230862"/><linearGradient id="aB" gradientUnits="userSpaceOnUse" x1="479.9040305224" x2="414.2877889946" xlink:href="#Q" y1="172.7324435762" y2="174.8838484222"/><linearGradient id="aC" gradientUnits="userSpaceOnUse" x1="468.9732273942" x2="468.9732273942" xlink:href="#X" y1="388.7440312956" y2="421.0546585124"/><path d="m8.886719 66.695312h496.378906v53.785157h-496.378906zm0 0" fill="url(#b)"/><path d="m54.488281 120.480469h85.339844l-53.785156-53.785157h-31.554688zm0 0" fill="url(#d)"/><path d="m194.867188 120.480469h85.335937l-53.785156-53.785157h-31.550781zm0 0" fill="url(#e)"/><path d="m335.242188 120.480469h85.335937l-53.785156-53.785157h-31.550781zm0 0" fill="url(#f)"/><path d="m8.886719 330.238281h496.378906v53.785157h-496.378906zm0 0" fill="url(#g)"/><path d="m54.488281 384.023438h85.339844l-53.785156-53.785157h-31.554688zm0 0" fill="url(#h)"/><path d="m194.867188 384.023438h85.335937l-53.785156-53.785157h-31.550781zm0 0" fill="url(#i)"/><path d="m335.242188 384.023438h85.335937l-53.785156-53.785157h-31.550781zm0 0" fill="url(#j)"/><path d="m12.980469 353.804688v.019531c0 .914062.015625 1.832031.066406 2.746093.019531.382813.046875.761719.074219 1.144532.027344.523437.078125 1.046875.132812 1.5625.039063.457031.097656.894531.144532 1.34375.09375.78125.210937 1.554687.34375 2.316406.058593.390625.121093.78125.199218 1.171875 4.242188 22.109375 21.890625 39.644531 44.03125 43.753906 1.152344.210938 2.316406.390625 3.488282.523438.054687.007812.121093.019531.1875.019531.402343.046875.8125.09375 1.210937.125.402344.035156.800781.074219 1.203125.101562.121094.011719.238281.019532.351562.019532.179688.015625.359376.027344.539063.035156.636719.03125 1.675781.070312 2.3125.070312h.664063v.011719h249.5625c13.382812 0 26.503906-3.714843 37.898437-10.730469l-.019531-.117187c.667968-.425781 1.335937-.875 1.992187-1.324219.648438-.445312 1.289063-.90625 1.917969-1.363281.082031-.054687.160156-.113281.246094-.179687.574218-.429688 1.132812-.855469 1.695312-1.285157.628906-.496093 1.25-.992187 1.859375-1.507812.621094-.503907 1.21875-1.027344 1.820313-1.554688 1.199218-1.054687 2.363281-2.144531 3.488281-3.265625.570313-.5625 1.125-1.136718 1.667969-1.707031.550781-.582031 1.09375-1.171875 1.621094-1.761719 1.066406-1.183594 2.09375-2.402344 3.078124-3.660156.492188-.628906.980469-1.269531 1.457032-1.90625.476562-.640625.941406-1.289062 1.398437-1.945312s.90625-1.316407 1.34375-1.992188c.429688-.648438.847657-1.316406 1.257813-1.980469.03125-.050781.066406-.105469.097656-.164062.34375-.5625.675781-1.125 1-1.695313 1.296875-2.242187 2.476562-4.546875 3.535156-6.917968.132813-.296876.269532-.59375.390625-.886719.171875-.371094.324219-.746094.476563-1.117188.164062-.371093.316406-.753906.457031-1.125.488281-1.210937.945313-2.4375 1.375-3.6875.140625-.410156.273437-.828125.410156-1.25.160157-.496093.3125-.988281.464844-1.496093.125-.40625.25-.828126.363281-1.246094.039063-.136719.074219-.277344.113282-.410156.085937-.316407.171874-.621094.257812-.933594.046875-.164063.085938-.335938.132812-.503906.078126-.296876.144532-.601563.21875-.898438.078126-.304688.144532-.601562.210938-.90625.027344-.074219.046875-.152344.058594-.238281.015625-.074219.035156-.152344.054687-.226563v-.011718c.078125-.351563.152344-.714844.230469-1.074219.085938-.402344.171875-.800781.246094-1.203125.019531-.066406.03125-.125.039062-.191406.066406-.351563.125-.695313.191406-1.039063.039063-.199219.074219-.40625.105469-.617187.015625-.097657.035157-.191407.046875-.296876.066406-.417968.132813-.839843.191406-1.257812.015626-.09375.035157-.199219.046876-.292969.027343-.21875.066406-.441406.09375-.667969.011718-.085937.019531-.160156.027343-.238281.039063-.3125.085938-.617187.117188-.933593.007812-.085938.019531-.179688.027343-.277344.019532-.121094.039063-.246094.046876-.371094.027343-.207031.046874-.425781.066406-.648438.007812-.054687.007812-.113281.019531-.171874.027344-.253907.058594-.523438.074219-.78125.03125-.304688.058594-.601563.078125-.90625 0-.046876 0-.085938.007812-.132813.011719-.09375.011719-.191406.019531-.285156.027344-.277344.046876-.5625.066407-.847657.019531-.285156.027343-.582031.039062-.878906.019531-.3125.027344-.617187.046875-.933594l.027344-1.085937c.019531-.304687.03125-.621094.03125-.925781v-1.113282c0-.839843-.011719-1.679687-.039062-2.515624-.019532-.648438-.046876-1.289063-.085938-1.925782 0-.039062 0-.078125-.011719-.113281-.007812-.078125-.007812-.164063-.007812-.25-.019531-.363281-.046875-.714844-.074219-1.066406-.019531-.285157-.039062-.574219-.066406-.859375-.011719-.105469-.019532-.199219-.03125-.292969-.027344-.375-.066406-.746094-.101563-1.105469-.03125-.296875-.058593-.582031-.085937-.878906 0-.007812 0-.027344-.007813-.039062-.085937-.742188-.183593-1.484376-.289062-2.21875-.105469-.734376-.21875-1.46875-.34375-2.203126-.246094-1.457031-.542969-2.90625-.867188-4.335937 0 0-.007812-.007813-.007812-.019531-.296875-1.273438-.621094-2.53125-.972657-3.78125-.351562-1.25-.734374-2.476563-1.152343-3.699219-.410157-1.21875-.859375-2.429687-1.324219-3.628906-.476562-1.191407-.972656-2.363281-1.488281-3.527344l-.007813-.007813c-.535156-1.164062-1.085937-2.308593-1.660156-3.441406-.582031-1.136718-1.191406-2.257812-1.828125-3.363281-.945313-1.648437-1.945313-3.261719-3.011719-4.832031-.011718 0-.011718 0-.011718-.011719-.789063-1.179687-1.621094-2.335937-2.476563-3.46875-.285156-.382813-.582031-.753906-.867187-1.125-.59375-.742187-1.191407-1.476563-1.800782-2.199219-.613281-.726562-1.230468-1.429687-1.871094-2.136718 0 0-.007812 0-.007812-.007813-.847656-.933594-1.714844-1.839844-2.609375-2.738281-1.785156-1.78125-3.652344-3.484375-5.605469-5.085938-.714844-.601562-1.445312-1.175781-2.1875-1.75-.789062-.609375-1.589844-1.203125-2.402344-1.777344-.484374-.339843-.980468-.6875-1.480468-1.019531-1.046875-.714843-2.105469-1.390625-3.191406-2.050781-11.925782-7.25-25.933594-11.425781-40.914063-11.425781-.753906 0-1.515625.007812-2.257813.039062-.753906.019531-1.496093.046875-2.242187.09375h-.007813c-.132812-1.296875-.304687-2.582031-.523437-3.859375-.132813-.789062-.296875-1.570312-.457031-2.355468-.105469-.484376-.21875-.96875-.34375-1.457032-.097656-.398437-.199219-.800781-.304688-1.191406-.117187-.410156-.230468-.820312-.355468-1.21875-.113282-.410156-.234376-.808594-.371094-1.210938-.132813-.410156-.265625-.800781-.398438-1.199218-.132812-.410156-.277344-.8125-.441406-1.203125-.140625-.390625-.292969-.769531-.445312-1.160157-.152344-.390624-.316407-.773437-.476563-1.164062-.164063-.390625-.335937-.773438-.503906-1.144531-.34375-.761719-.714844-1.515625-1.089844-2.246094-.761719-1.515625-1.597656-2.976563-2.503906-4.394531-.171875-.265625-.34375-.542969-.523438-.808594-.144531-.230469-.296875-.460938-.460937-.679688-.171875-.265624-.359375-.53125-.550782-.800781-.164062-.246093-.34375-.484375-.523437-.722656-.164063-.226563-.335937-.457031-.496094-.683594-1.363281-1.8125-2.832031-3.527343-4.40625-5.136719-.257812-.273437-.53125-.542968-.785156-.796874-.894531-.898438-1.828125-1.761719-2.789063-2.585938-.320312-.273438-.640624-.546875-.960937-.8125-.265625-.230469-.542969-.449219-.820313-.65625-.332031-.269531-.675781-.535156-1.019531-.792969-.160156-.125-.3125-.246093-.476562-.363281-2.039063-1.511719-4.191407-2.886719-6.453125-4.105469-.378906-.210937-.78125-.421875-1.171875-.621093-.191407-.105469-.382813-.199219-.570313-.285157-.257812-.132812-.515625-.257812-.773437-.382812-.445313-.214844-1.175781-.542969-1.625-.746094-.15625-.070313-.316407-.140625-.480469-.207031-.46875-.199219-.933594-.390625-1.421875-.578125-.53125-.210938-1.066406-.410157-1.597656-.601563-.125-.046875-.25-.097656-.382813-.132812-.523437-.183594-1.046875-.363282-1.574218-.523438-.226563-.078125-.445313-.144531-.675782-.210937-.609375-.191407-1.21875-.363281-1.847656-.523438-.269531-.078125-.542969-.144531-.820312-.210937-1.953126-.484375-3.964844-.867188-6.003907-1.132813-.199219-.03125-.402343-.050781-.609375-.078125-.945312-.113281-1.90625-.210937-2.871094-.265625-.78125-.058593-1.5625-.097656-2.34375-.117187-.476562-.007813-.941406-.019532-1.417968-.019532-.839844 0-1.679688.019532-2.507813.058594-.285156.011719-.574219.03125-.859375.046875-.5625.03125-1.121094.078125-1.683594.136719-.390624.027344-.78125.066406-1.164062.113281-.808594.085938-1.621094.199219-2.421875.324219-.808594.125-1.609375.265625-2.410156.4375-.398438.078125-.789063.164062-1.179688.257812-.402343.085938-.792969.183594-1.183593.277344-.292969.074219-.601563.152344-.90625.238282-1.125.292968-2.230469.636718-3.316407 1-.5.167968-.996093.351562-1.496093.535156-12.980469-25.769532-39.675782-43.449219-70.496094-43.449219-37.527344 0-68.933594 26.199219-76.929688 61.308594-2.039062 8.984375-8.078125 16.65625-16.53125 20.34375-15.546875 6.777343-26.421875 22.273437-26.421875 40.3125 0 6.15625 1.277344 12.007812 3.558594 17.335937l.007813.011719c-2.144532.847656-4.222657 1.828125-6.222657 2.925781-.667969.359375-1.335937.742188-1.980469 1.140625-.296874.183594-.582031.355469-.867187.535157-.46875.296874-.925781.589843-1.382813.894531-.90625.621093-1.792968 1.257812-2.660156 1.917969 0 0-.007812-.011719-.007812 0-.867188.675781-1.71875 1.359374-2.535156 2.066406-.832032.703125-1.628907 1.4375-2.421876 2.210937-.390624.382813-.78125.773438-1.164062 1.164063-.351562.359375-.695312.722656-1.039062 1.09375-.675782.742187-1.339844 1.507812-1.980469 2.289062-.324219.390625-.636719.78125-.945313 1.179688-.371094.46875-.722656.945312-1.066406 1.421875-1.039062 1.429687-2 2.914062-2.90625 4.441406-.523438.867187-1.007812 1.753906-1.476562 2.667969-.152344.292968-.304688.597656-.457032.90625-.140625.304687-.296875.609375-.4375.921875-.601562 1.257812-1.144531 2.554687-1.640625 3.871093-.105469.285157-.21875.570313-.3125.855469-.296875.8125-.574219 1.628907-.832031 2.460938-.085938.304687-.179688.609375-.265625.914062-.160156.570313-.324219 1.144531-.46875 1.726563-.09375.359375-.179687.714844-.253906 1.074218-.085938.371094-.171875.753907-.25 1.125-.191407.914063-.363281 1.832032-.503907 2.765626-.058593.351562-.105468.695312-.152343 1.046874-.039063.277344-.078125.5625-.105469.839844-.046875.332032-.085938.675782-.113281 1.019532-.050781.457031-.089844.925781-.125 1.382812-.03125.332031-.046875.664062-.066407 1-.019531.257812-.03125.511719-.039062.78125-.019531.34375-.03125.683594-.039062 1.027344-.003907.46875-.011719.9375-.011719 1.402344zm0 0" fill="url(#k)"/><path d="m12.980469 353.804688v.019531c0 .914062.015625 1.832031.066406 2.746093.019531.382813.046875.761719.074219 1.144532.027344.523437.078125 1.046875.132812 1.5625.039063.457031.097656.894531.144532 1.34375 3.089843 25.027344 22.988281 44.832031 48.0625 47.765625.054687.007812.121093.019531.1875.019531.402343.046875.8125.09375 1.210937.125.402344.035156.800781.074219 1.203125.101562.121094.011719.238281.019532.351562.019532.34375.03125.683594.039062 1.039063.058594.601563.027343 1.199219.046874 1.8125.046874.207031.011719.417969.011719.628906.011719h.121094c.476563 0 .945313-.011719 1.421875-.019531.265625-.011719.523438-.019531.789062-.03125.46875-.019531.925782-.046875 1.382813-.074219.769531-.050781 1.542969-.113281 2.304687-.199219.542969-.058593 1.078126-.125 1.609376-.203124.5625-.074219 1.117187-.160157 1.667968-.257813.152344-.027344.304688-.046875.449219-.074219.523437-.09375 1.046875-.191406 1.5625-.304687.390625-.078125.78125-.164063 1.171875-.257813.324219-.078125.660156-.152344.984375-.238281.390625-.09375.78125-.199219 1.171875-.304687 1.113281-.304688 2.210938-.648438 3.285156-1.019532.308594-.105468.601563-.210937.898438-.316406 1.074218-.390625 2.144531-.820312 3.183594-1.273438.417968-.183593.839843-.375 1.257812-.5625.101562-.050781.207031-.097656.304688-.144531.496093-.238281.988281-.476562 1.476562-.734375.410156-.207031.808594-.417968 1.210938-.636718.285156-.152344.570312-.316407.859374-.476563.855469-.488281 1.703126-.992187 2.523438-1.527344.371094-.238281.742188-.484375 1.105469-.734375.324219-.207031.648437-.4375.964843-.664062.332032-.230469.667969-.46875 1-.714844.292969-.21875.601563-.449219.894532-.6875.113281-.085938.230468-.171875.34375-.265625.257812-.191406.496094-.390625.742187-.601563.277344-.210937.554688-.4375.828125-.6875.390625-.324218.773438-.644531 1.144532-.988281.105468-.085937.210937-.183593.316406-.277343.398437-.371094.800781-.742188 1.191406-1.125.410156-.378907.808594-.78125 1.199219-1.191407.039062-.027343.078125-.066406.113281-.113281.402344-.421875.792969-.839844 1.183594-1.257812.019531-.007813.027344-.03125.039062-.039063.378906-.429687.761719-.855469 1.132813-1.296875.011719 0 .011719-.007812.019531-.019531.382812-.457031.761719-.914063 1.125-1.371094.761719-.933594 1.476562-1.894531 2.152344-2.878906.332031-.496094.675781-.988281 1-1.484375.660156-1.003906 1.277344-2.03125 1.871094-3.078125 0 0 0 0 0-.011719 3.867187-6.898438 6.289062-14.722656 6.839843-23.054688.097657-1.238281.132813-2.488281.132813-3.746093 0-15.820313-6.6875-30.085938-17.398438-40.101563-6.0625-5.679687-13.402344-9.996094-21.550781-12.464844-5.058594-1.546874-10.433594-2.375-16-2.375-7.136719 0-13.953125 1.363282-20.214844 3.839844-2.859375 1.125-5.605469 2.5-8.195312 4.082032-.296875.179687-.582031.351562-.867188.53125-3.71875 2.335937-7.128906 5.109374-10.167969 8.253906-1.410156 1.449218-2.734374 2.972656-3.964843 4.566406-1.457031 1.855469-2.785157 3.8125-3.976563 5.859375-.523437.867187-1.007812 1.753906-1.476562 2.667969-.152344.296875-.304688.601562-.457032.90625-.140624.304687-.296874.609375-.4375.925781-.601562 1.257813-1.144531 2.554687-1.640624 3.867187-.105469.285157-.21875.574219-.3125.859376-.296876.808593-.574219 1.628906-.832032 2.457031-.085937.304687-.179687.609375-.265625.914062-.160156.574219-.324219 1.144531-.46875 1.726563-.09375.363281-.179687.714844-.253906 1.078125-.085937.371093-.171875.753906-.25 1.125-.191406.914062-.363281 1.828125-.503906 2.761719-.058594.351562-.105469.695312-.152344 1.046874-.039063.277344-.078125.5625-.105469.839844-.046875.335938-.085937.679688-.113281 1.019532-.050781.460937-.089844.925781-.125 1.382812-.03125.332031-.046875.667969-.066406 1-.019531.257812-.027344.515625-.039063.78125-.019531.34375-.03125.6875-.039062 1.03125-.007813.464844-.015625.933594-.015625 1.398438zm0 0" fill="url(#m)"/><path d="m233.929688 331.601562c0 22.359376 9.300781 42.542969 24.242187 56.894532 1.117187 1.078125 2.269531 2.125 3.449219 3.125 2.117187 1.820312 4.335937 3.515625 6.652344 5.097656.429687.296875.859374.582031 1.296874.867188.398438.269531.800782.527343 1.210938.78125.390625.257812.789062.507812 1.191406.734374.429688.269532.847656.523438 1.285156.773438 2.183594 1.265625 4.441407 2.4375 6.757813 3.496094.324219.144531.648437.296875.972656.441406.753907.332031 1.515625.65625 2.289063.960938.371094.152343.742187.304687 1.121094.449218.527343.199219 1.050781.398438 1.582031.589844 1.554687.5625 3.128906 1.078125 4.726562 1.542969.046875.019531.085938.03125.136719.039062.53125.152344 1.066406.296875 1.597656.4375.449219.125.898438.238281 1.355469.355469.171875.046875.34375.085938.515625.121094.484375.117187.972656.230468 1.457031.335937.179688.046875.363281.085938.542969.121094h33.023438c9.414062-2 18.210937-5.6875 26.054687-10.730469 14.914063-9.578125 26.378906-24.042968 32.152344-41.140625.144531-.410156.277343-.832031.410156-1.25.164063-.496093.316406-.992187.46875-1.496093.121094-.410157.246094-.828126.363281-1.25.035156-.132813.074219-.273438.113282-.40625.085937-.316407.171874-.621094.257812-.933594.046875-.164063.085938-.335938.132812-.507813.066407-.246093.125-.503906.191407-.75.007812-.050781.027343-.097656.027343-.144531.105469-.382812.191407-.761719.269532-1.144531.015625-.078125.035156-.152344.054687-.230469v-.007812c.03125-.121094.058594-.246094.085938-.371094.027343-.113282.058593-.230469.078125-.351563.113281-.515625.21875-1.03125.3125-1.554687.019531-.066406.027344-.125.039062-.191406.066406-.351563.121094-.695313.191406-1.039063.035157-.199219.074219-.40625.101563-.617187.019531-.097657.039063-.191407.046875-.296876.066406-.417968.136719-.839843.191406-1.257812.019532-.09375.039063-.199219.046875-.292969.046875-.296875.085938-.601562.125-.90625.007813-.078125.019531-.164062.027344-.25.03125-.226562.058594-.457031.085937-.683593.011719-.085938.019532-.179688.027344-.277344.039063-.292969.066406-.589844.097656-.886719.007813-.039063.015626-.085937.015626-.132813.011718-.058593.011718-.113281.019531-.171874.058593-.5625.105469-1.125.152343-1.6875 0-.046876 0-.085938.011719-.132813.007813-.09375.007813-.191406.019531-.285156.035157-.574219.074219-1.144531.101563-1.726563.019531-.3125.03125-.617187.046875-.933594l.03125-1.085937c.019531-.636719.027344-1.277344.027344-1.914063v-.125c0-.839843-.007813-1.675781-.039063-2.515624-.019531-.648438-.046875-1.285157-.085937-1.925782 0-.039062 0-.074218-.007813-.113281-.019531-.441406-.046875-.878906-.085937-1.316406-.019532-.285157-.039063-.570313-.066406-.859375-.007813-.101563-.019532-.199219-.027344-.292969-.03125-.371094-.066406-.742187-.105469-1.105469-.027344-.304687-.054687-.609375-.09375-.914062-.085937-.742188-.183594-1.488282-.285156-2.222656-.105469-.734376-.222657-1.46875-.34375-2.199219-.25-1.460938-.542969-2.90625-.867188-4.335938 0 0-.011719-.011719-.011719-.019531-.292968-1.277344-.617187-2.535156-.972656-3.785156-.351562-1.25-.730468-2.476563-1.152344-3.695313-.410156-1.222656-.855468-2.433593-1.324218-3.632812-.476563-1.191407-.972656-2.363281-1.488282-3.527344l-.007812-.007813c-.535156-1.164062-1.085938-2.308593-1.660156-3.441406-.578125-1.132812-1.191406-2.257812-1.828125-3.363281-.953125-1.648437-1.953125-3.261719-3.011719-4.832031-.011719 0-.011719 0-.011719-.011719-.800781-1.179687-1.617187-2.335937-2.476562-3.46875-.285157-.378906-.582031-.75-.867188-1.125-.589843-.742187-1.191406-1.476563-1.800781-2.199219s-1.230469-1.429687-1.867188-2.136718c0 0-.011718 0-.011718-.007813-.847656-.933594-1.714844-1.839844-2.609375-2.734375-1.78125-1.785156-3.652344-3.488281-5.605469-5.089844-.722656-.609375-1.464844-1.191406-2.21875-1.773437-.746094-.570313-1.507812-1.132813-2.277344-1.6875-.515625-.363281-1.039062-.734375-1.574218-1.085938-1.046876-.703125-2.105469-1.390625-3.191407-2.046875-11.921875-7.253906-25.933593-11.429687-40.914062-11.429687-.753907 0-1.515625.011719-2.257813.039062-.753906.019531-1.496094.046875-2.238281.097657h-.011719c-26.40625 1.476562-49.347656 15.953124-62.515625 37.128906-3.964843 6.347656-7.042969 13.3125-9.066406 20.707031-1.835937 6.664063-2.804687 13.6875-2.804687 20.929687zm0 0" fill="url(#n)"/><path d="m308.605469 258.390625c0 30.34375-24.601563 54.945313-54.945313 54.945313s-54.945312-24.601563-54.945312-54.945313 24.601562-54.945313 54.945312-54.945313 54.945313 24.601563 54.945313 54.945313zm0 0" fill="url(#o)"/><path d="m211.324219 298.882812c0 35.191407-28.53125 63.722657-63.726563 63.722657-35.191406 0-63.722656-28.53125-63.722656-63.722657 0-35.195312 28.53125-63.722656 63.722656-63.722656 35.195313 0 63.726563 28.527344 63.726563 63.722656zm0 0" fill="url(#p)"/><path d="m289.460938 341.011719c0 28.539062-23.132813 51.671875-51.671876 51.671875-28.535156 0-51.667968-23.132813-51.667968-51.671875 0-28.535157 23.132812-51.667969 51.667968-51.667969 28.539063 0 51.671876 23.132812 51.671876 51.667969zm0 0" fill="url(#q)"/><path d="m195.28125 408.765625h288.164062c8.527344 0 15.558594-6.855469 15.574219-15.382813 0-.050781 0-.105468 0-.160156 0-21.203125-8.277343-40.472656-21.785156-54.75-5.117187-5.226562-10.859375-9.84375-17.109375-13.71875-13.863281-8.605468-30.222656-13.574218-47.746094-13.574218-25.851562 0-49.164062 10.808593-65.683594 28.152343-4.132812 4.339844-10.289062 6.152344-16.082031 4.601563-3.894531-1.050782-8-1.609375-12.234375-1.609375-13.378906 0-25.453125 5.59375-34.011718 14.566406-4.492188 4.71875-11.34375 6.335937-17.46875 4.117187-6.640626-2.414062-13.800782-3.734374-21.269532-3.734374-26.578125 0-49.269531 16.660156-58.203125 40.089843-2.09375 5.507813 1.964844 11.402344 7.855469 11.402344zm0 0" fill="url(#s)"/><path d="m458.84375 367.691406c1.832031-1.925781 4.414062-3.132812 7.28125-3.132812 5.554688 0 10.058594 4.503906 10.058594 10.058594 0 2.871093-1.207032 5.453124-3.132813 7.285156l-17.914062 17.914062c-1.835938 1.925782-4.417969 3.136719-7.285157 3.136719-5.554687 0-10.058593-4.503906-10.058593-10.0625 0-2.867187 1.207031-5.449219 3.132812-7.28125zm0 0" fill="url(#u)"/><path d="m476.183594 374.617188c0 5.554687-4.503906 10.058593-10.058594 10.058593s-10.058594-4.503906-10.058594-10.058593c0-5.554688 4.503906-10.058594 10.058594-10.058594s10.058594 4.503906 10.058594 10.058594zm0 0" fill="url(#w)"/><path d="m401.027344 330.207031c1.832031-1.925781 4.414062-3.132812 7.28125-3.132812 5.554687 0 10.058594 4.503906 10.058594 10.058593 0 2.867188-1.207032 5.449219-3.132813 7.28125l-17.917969 17.917969c-1.832031 1.925781-4.414062 3.132813-7.28125 3.132813-5.554687 0-10.058594-4.503906-10.058594-10.058594 0-2.867188 1.207032-5.449219 3.132813-7.28125zm0 0" fill="url(#x)"/><path d="m418.367188 337.132812c0 5.554688-4.503907 10.058594-10.058594 10.058594-5.554688 0-10.058594-4.503906-10.058594-10.058594 0-5.554687 4.503906-10.058593 10.058594-10.058593 5.554687 0 10.058594 4.503906 10.058594 10.058593zm0 0" fill="url(#y)"/><path d="m361.632812 370.871094c1.832032-1.929688 4.414063-3.136719 7.285157-3.136719 5.554687 0 10.058593 4.503906 10.058593 10.058594 0 2.871093-1.207031 5.453125-3.132812 7.285156l-17.917969 17.914063c-1.832031 1.929687-4.414062 3.136718-7.28125 3.136718-5.558593 0-10.0625-4.503906-10.0625-10.058594 0-2.871093 1.210938-5.453124 3.136719-7.285156zm0 0" fill="url(#z)"/><path d="m378.976562 377.796875c0 5.554687-4.503906 10.058594-10.058593 10.058594-5.554688 0-10.058594-4.503907-10.058594-10.058594 0-5.558594 4.503906-10.0625 10.058594-10.0625 5.554687 0 10.058593 4.503906 10.058593 10.0625zm0 0" fill="url(#A)"/><path d="m274.976562 372.226562c1.832032-1.925781 4.414063-3.136718 7.285157-3.136718 5.554687 0 10.058593 4.503906 10.058593 10.0625 0 2.867187-1.207031 5.449218-3.132812 7.28125l-17.917969 17.917968c-1.832031 1.925782-4.414062 3.132813-7.285156 3.132813-5.554687 0-10.058594-4.503906-10.058594-10.058594 0-2.871093 1.207031-5.449219 3.136719-7.285156zm0 0" fill="url(#B)"/><path d="m292.320312 379.152344c0 5.554687-4.503906 10.058594-10.058593 10.058594-5.558594 0-10.058594-4.503907-10.058594-10.058594 0-5.558594 4.5-10.0625 10.058594-10.0625 5.554687 0 10.058593 4.503906 10.058593 10.0625zm0 0" fill="url(#C)"/><path d="m306.109375 287.722656c1.832031-1.925781 4.414063-3.132812 7.28125-3.132812 5.558594 0 10.0625 4.503906 10.0625 10.058594 0 2.871093-1.207031 5.453124-3.136719 7.285156l-17.914062 17.914062c-1.832032 1.929688-4.414063 3.136719-7.285156 3.136719-5.554688 0-10.058594-4.503906-10.058594-10.058594 0-2.871093 1.207031-5.453125 3.132812-7.285156zm0 0" fill="url(#D)"/><path d="m323.453125 294.648438c0 5.558593-4.503906 10.058593-10.0625 10.058593-5.554687 0-10.058594-4.5-10.058594-10.058593 0-5.554688 4.503907-10.058594 10.058594-10.058594 5.558594 0 10.0625 4.503906 10.0625 10.058594zm0 0" fill="url(#F)"/><path d="m218.664062 319.460938c1.832032-1.929688 4.414063-3.136719 7.285157-3.136719 5.554687 0 10.058593 4.503906 10.058593 10.058593 0 2.871094-1.207031 5.453126-3.136718 7.285157l-17.914063 17.914062c-1.832031 1.929688-4.414062 3.136719-7.285156 3.136719-5.554687 0-10.058594-4.503906-10.058594-10.058594 0-2.871094 1.207031-5.453125 3.136719-7.285156zm0 0" fill="url(#G)"/><path d="m236.007812 326.382812c0 5.558594-4.503906 10.0625-10.058593 10.0625-5.558594 0-10.0625-4.503906-10.0625-10.0625 0-5.554687 4.503906-10.058593 10.0625-10.058593 5.554687 0 10.058593 4.503906 10.058593 10.058593zm0 0" fill="url(#H)"/><path d="m225.757812 247.984375c1.832032-1.925781 4.414063-3.132813 7.285157-3.132813 5.554687 0 10.058593 4.503907 10.058593 10.058594 0 2.871094-1.207031 5.453125-3.132812 7.285156l-17.917969 17.914063c-1.832031 1.929687-4.414062 3.136719-7.28125 3.136719-5.558593 0-10.0625-4.503906-10.0625-10.058594 0-2.871094 1.210938-5.453125 3.136719-7.285156zm0 0" fill="url(#I)"/><path d="m243.101562 254.910156c0 5.558594-4.503906 10.058594-10.058593 10.058594-5.554688 0-10.058594-4.5-10.058594-10.058594 0-5.554687 4.503906-10.058594 10.058594-10.058594 5.554687 0 10.058593 4.503907 10.058593 10.058594zm0 0" fill="url(#J)"/><path d="m144.386719 273.664062c1.832031-1.925781 4.414062-3.136718 7.28125-3.136718 5.554687 0 10.058593 4.503906 10.058593 10.0625 0 2.867187-1.207031 5.449218-3.132812 7.28125l-17.917969 17.917968c-1.832031 1.925782-4.414062 3.132813-7.28125 3.132813-5.554687 0-10.058593-4.503906-10.058593-10.058594 0-2.871093 1.207031-5.453125 3.132812-7.285156zm0 0" fill="url(#K)"/><path d="m161.726562 280.589844c0 5.554687-4.503906 10.058594-10.058593 10.058594-5.554688 0-10.058594-4.503907-10.058594-10.058594 0-5.558594 4.503906-10.0625 10.058594-10.0625 5.554687 0 10.058593 4.503906 10.058593 10.0625zm0 0" fill="url(#L)"/><path d="m89.960938 348.046875c1.832031-1.925781 4.414062-3.132813 7.28125-3.132813 5.554687 0 10.058593 4.503907 10.058593 10.058594 0 2.871094-1.207031 5.453125-3.132812 7.285156l-17.917969 17.914063c-1.832031 1.925781-4.414062 3.136719-7.28125 3.136719-5.554688 0-10.058594-4.503906-10.058594-10.0625 0-2.867188 1.207032-5.449219 3.132813-7.28125zm0 0" fill="url(#M)"/><path d="m107.300781 354.972656c0 5.558594-4.503906 10.0625-10.058593 10.0625-5.554688 0-10.058594-4.503906-10.058594-10.0625 0-5.554687 4.503906-10.058594 10.058594-10.058594 5.554687 0 10.058593 4.503907 10.058593 10.058594zm0 0" fill="url(#N)"/><path d="m134.324219 207.960938c1.832031-1.925782 4.414062-3.132813 7.285156-3.132813 5.554687 0 10.058594 4.503906 10.058594 10.058594 0 2.867187-1.207031 5.449219-3.132813 7.28125l-17.917968 17.917969c-1.832032 1.925781-4.414063 3.132812-7.28125 3.132812-5.558594 0-10.058594-4.503906-10.058594-10.058594 0-2.867187 1.207031-5.449218 3.132812-7.285156zm0 0" fill="url(#O)"/><path d="m151.667969 214.886719c0 5.554687-4.503907 10.058593-10.058594 10.058593s-10.058594-4.503906-10.058594-10.058593c0-5.554688 4.503907-10.058594 10.058594-10.058594s10.058594 4.503906 10.058594 10.058594zm0 0" fill="url(#P)"/><path d="m70.332031 408.765625h-54.613281c-8.679688 0-15.71875-7.035156-15.71875-15.71875v-320.992187c0-22.714844 8.367188-44.636719 23.503906-61.570313l2.609375-2.917969c9.019531-10.089844 24.808594-10.089844 33.828125 0l2.605469 2.917969c15.136719 16.933594 23.507813 38.855469 23.507813 61.570313v320.992187c0 8.683594-7.039063 15.71875-15.722657 15.71875zm0 0" fill="url(#R)"/><path d="m51.25 83.25c-2.070312-2.171875-4.984375-3.535156-8.222656-3.535156-6.269532 0-11.355469 5.082031-11.355469 11.351562 0 3.238282 1.363281 6.152344 3.539063 8.222656l20.222656 20.222657c2.066406 2.171875 4.980468 3.535156 8.21875 3.535156 6.273437 0 11.355468-5.082031 11.355468-11.351563 0-3.238281-1.363281-6.152343-3.539062-8.222656zm0 0" fill="url(#T)"/><path d="m54.378906 91.066406c0 6.273438-5.082031 11.355469-11.351562 11.355469-6.269532 0-11.355469-5.082031-11.355469-11.355469 0-6.269531 5.085937-11.351562 11.355469-11.351562 6.269531 0 11.351562 5.082031 11.351562 11.351562zm0 0" fill="url(#U)"/><path d="m51.25 349.410156c-2.070312-2.175781-4.984375-3.539062-8.222656-3.539062-6.269532 0-11.355469 5.082031-11.355469 11.351562 0 3.238282 1.363281 6.152344 3.539063 8.222656l20.222656 20.222657c2.066406 2.171875 4.980468 3.535156 8.21875 3.535156 6.273437 0 11.355468-5.082031 11.355468-11.351563 0-3.238281-1.363281-6.152343-3.539062-8.222656zm0 0" fill="url(#V)"/><path d="m54.378906 357.226562c0 6.269532-5.082031 11.351563-11.351562 11.351563-6.269532 0-11.355469-5.082031-11.355469-11.351563 0-6.273437 5.085937-11.355468 11.355469-11.355468 6.269531 0 11.351562 5.082031 11.351562 11.355468zm0 0" fill="url(#W)"/><path d="m59.941406 7.566406c-.6875-.765625-1.421875-1.453125-2.179687-2.105468 2.574219 8.167968 4.273437 21.730468 3.550781 44.085937-2.152344 66.691406-14.339844 47.328125-7.171875 96.8125 7.171875 49.480469 12.191406 64.539063-.714844 96.09375-9.703125 23.71875-1.980469 119.984375 2.453125 166.3125h14.453125c8.683594 0 15.722657-7.035156 15.722657-15.71875v-320.992187c0-22.714844-8.371094-44.636719-23.507813-61.570313zm0 0" fill="url(#Y)"/><path d="m86.054688 393.046875v-320.992187c0-22.714844-8.371094-44.636719-23.507813-61.570313l-2.605469-2.917969c-8.558594-9.570312-23.199218-10.042968-32.378906-1.453125-.65625 47.289063-1.503906 147.902344 2.558594 180.402344 5.378906 43.027344 0 59.164063-4.304688 109.71875-2.609375 30.667969 1.90625 79.136719 5.863282 112.53125h38.65625c8.679687 0 15.71875-7.035156 15.71875-15.71875zm0 0" fill="url(#Z)"/><path d="m20.988281 13.433594c-11.570312 14.09375-18.679687 31.269531-20.503906 49.335937 3.886719 48.738281 9.160156 131.429688 7.046875 201.195313-3.226562 106.492187 8.605469 83.902344 15.058594-10.757813 4.699218-68.921875.84375-182.894531-1.601563-239.773437zm0 0" fill="url(#aa)"/><path d="m0 359.699219v33.347656c0 8.683594 7.039062 15.71875 15.71875 15.71875h54.613281c8.683594 0 15.722657-7.035156 15.722657-15.71875v-33.347656zm0 0" fill="url(#ab)"/><path d="m212.316406 408.765625h-54.613281c-8.683594 0-15.71875-7.035156-15.71875-15.71875v-320.992187c0-22.714844 8.367187-44.636719 23.503906-61.570313l2.605469-2.917969c9.019531-10.089844 24.808594-10.089844 33.828125 0l2.609375 2.917969c15.136719 16.933594 23.503906 38.855469 23.503906 61.570313v320.992187c0 8.683594-7.039062 15.71875-15.71875 15.71875zm0 0" fill="url(#ac)"/><path d="m193.230469 83.25c-2.070313-2.171875-4.984375-3.535156-8.222657-3.535156-6.269531 0-11.351562 5.082031-11.351562 11.351562 0 3.238282 1.363281 6.152344 3.535156 8.222656l20.222656 20.222657c2.066407 2.171875 4.984376 3.535156 8.222657 3.535156 6.269531 0 11.351562-5.082031 11.351562-11.351563 0-3.238281-1.363281-6.152343-3.535156-8.222656zm0 0" fill="url(#ad)"/><path d="m196.363281 91.066406c0 6.273438-5.085937 11.355469-11.355469 11.355469-6.269531 0-11.351562-5.082031-11.351562-11.355469 0-6.269531 5.082031-11.351562 11.351562-11.351562 6.269532 0 11.355469 5.082031 11.355469 11.351562zm0 0" fill="url(#ae)"/><path d="m193.230469 349.410156c-2.070313-2.175781-4.984375-3.539062-8.222657-3.539062-6.269531 0-11.351562 5.082031-11.351562 11.351562 0 3.238282 1.363281 6.152344 3.535156 8.222656l20.222656 20.222657c2.066407 2.171875 4.984376 3.535156 8.222657 3.535156 6.269531 0 11.351562-5.082031 11.351562-11.351563 0-3.238281-1.363281-6.152343-3.535156-8.222656zm0 0" fill="url(#af)"/><path d="m196.363281 357.226562c0 6.269532-5.085937 11.351563-11.355469 11.351563-6.269531 0-11.351562-5.082031-11.351562-11.351563 0-6.273437 5.082031-11.355468 11.351562-11.355468 6.269532 0 11.355469 5.082031 11.355469 11.355468zm0 0" fill="url(#ag)"/><path d="m201.921875 7.566406c-.683594-.765625-1.417969-1.453125-2.175781-2.105468 2.574218 8.167968 4.273437 21.730468 3.550781 44.085937-2.152344 66.691406-14.34375 47.328125-7.171875 96.8125 7.171875 49.480469 12.191406 64.539063-.714844 96.09375-9.707031 23.71875-1.984375 119.984375 2.449219 166.3125h14.457031c8.683594 0 15.71875-7.035156 15.71875-15.71875v-320.992187c0-22.714844-8.367187-44.636719-23.503906-61.570313zm0 0" fill="url(#ah)"/><path d="m228.035156 393.046875v-320.992187c0-22.714844-8.367187-44.636719-23.503906-61.570313l-2.609375-2.917969c-8.554687-9.570312-23.195313-10.042968-32.378906-1.453125-.65625 47.289063-1.503907 147.902344 2.558593 180.402344 5.378907 43.027344 0 59.164063-4.300781 109.71875-2.613281 30.667969 1.902344 79.136719 5.859375 112.53125h38.65625c8.679688 0 15.71875-7.035156 15.71875-15.71875zm0 0" fill="url(#ai)"/><path d="m162.972656 13.433594c-11.574218 14.09375-18.683594 31.269531-20.507812 49.335937 3.890625 48.738281 9.160156 131.429688 7.046875 201.195313-3.226563 106.492187 8.605469 83.902344 15.058593-10.757813 4.699219-68.921875.847657-182.894531-1.597656-239.773437zm0 0" fill="url(#aj)"/><path d="m141.980469 359.699219v33.347656c0 8.683594 7.039062 15.71875 15.722656 15.71875h54.609375c8.683594 0 15.722656-7.035156 15.722656-15.71875v-33.347656zm0 0" fill="url(#ak)"/><path d="m354.296875 408.765625h-54.613281c-8.679688 0-15.71875-7.035156-15.71875-15.71875v-320.992187c0-22.714844 8.367187-44.636719 23.503906-61.570313l2.609375-2.917969c9.015625-10.089844 24.808594-10.089844 33.828125 0l2.605469 2.917969c15.136719 16.933594 23.503906 38.855469 23.503906 61.570313v320.992187c.003906 8.683594-7.035156 15.71875-15.71875 15.71875zm0 0" fill="url(#al)"/><path d="m335.210938 83.25c-2.066407-2.171875-4.980469-3.535156-8.21875-3.535156-6.269532 0-11.355469 5.082031-11.355469 11.351562 0 3.238282 1.363281 6.152344 3.539062 8.222656l20.222657 20.222657c2.066406 2.171875 4.980468 3.535156 8.21875 3.535156 6.269531 0 11.355468-5.082031 11.355468-11.351563 0-3.238281-1.363281-6.152343-3.539062-8.222656zm0 0" fill="url(#am)"/><path d="m338.34375 91.066406c0 6.273438-5.082031 11.355469-11.351562 11.355469-6.269532 0-11.355469-5.082031-11.355469-11.355469 0-6.269531 5.085937-11.351562 11.355469-11.351562 6.269531 0 11.351562 5.082031 11.351562 11.351562zm0 0" fill="url(#an)"/><path d="m335.210938 349.410156c-2.066407-2.175781-4.980469-3.539062-8.21875-3.539062-6.269532 0-11.355469 5.082031-11.355469 11.351562 0 3.238282 1.363281 6.152344 3.539062 8.222656l20.222657 20.222657c2.066406 2.171875 4.980468 3.535156 8.21875 3.535156 6.269531 0 11.355468-5.082031 11.355468-11.351563 0-3.238281-1.363281-6.152343-3.539062-8.222656zm0 0" fill="url(#ao)"/><path d="m338.34375 357.226562c0 6.269532-5.082031 11.351563-11.351562 11.351563-6.269532 0-11.355469-5.082031-11.355469-11.351563 0-6.273437 5.085937-11.355468 11.355469-11.355468 6.269531 0 11.351562 5.082031 11.351562 11.355468zm0 0" fill="url(#ap)"/><path d="m343.90625 7.566406c-.6875-.765625-1.421875-1.453125-2.179688-2.105468 2.574219 8.167968 4.273438 21.730468 3.550782 44.085937-2.152344 66.691406-14.339844 47.328125-7.171875 96.8125 7.171875 49.480469 12.191406 64.539063-.714844 96.09375-9.703125 23.71875-1.980469 119.984375 2.449219 166.3125h14.457031c8.683594 0 15.722656-7.035156 15.722656-15.71875v-320.992187c0-22.714844-8.371093-44.636719-23.507812-61.570313zm0 0" fill="url(#aq)"/><path d="m370.019531 393.046875v-320.992187c0-22.714844-8.371093-44.636719-23.507812-61.570313l-2.605469-2.917969c-8.558594-9.570312-23.199219-10.042968-32.378906-1.453125-.660156 47.289063-1.507813 147.902344 2.554687 180.402344 5.378907 43.027344 0 59.164063-4.300781 109.71875-2.609375 30.667969 1.902344 79.136719 5.859375 112.53125h38.660156c8.679688 0 15.71875-7.035156 15.71875-15.71875zm0 0" fill="url(#ar)"/><path d="m304.953125 13.433594c-11.570313 14.09375-18.679687 31.269531-20.507813 49.335937 3.890626 48.738281 9.164063 131.429688 7.046876 201.195313-3.226563 106.492187 8.605468 83.902344 15.0625-10.757813 4.699218-68.921875.84375-182.894531-1.601563-239.773437zm0 0" fill="url(#as)"/><path d="m283.964844 359.699219v33.347656c0 8.683594 7.039062 15.71875 15.71875 15.71875h54.613281c8.683594 0 15.71875-7.035156 15.71875-15.71875v-33.347656zm0 0" fill="url(#at)"/><path d="m496.28125 408.765625h-54.613281c-8.683594 0-15.722657-7.035156-15.722657-15.71875v-320.992187c0-22.714844 8.371094-44.636719 23.507813-61.570313l2.605469-2.917969c9.019531-10.089844 24.808594-10.089844 33.828125 0l2.609375 2.917969c15.136718 16.933594 23.503906 38.855469 23.503906 61.570313v320.992187c0 8.683594-7.039062 15.71875-15.71875 15.71875zm0 0" fill="url(#au)"/><path d="m477.195312 83.25c-2.070312-2.171875-4.984374-3.535156-8.222656-3.535156-6.269531 0-11.351562 5.082031-11.351562 11.351562 0 3.238282 1.359375 6.152344 3.535156 8.222656l20.222656 20.222657c2.066406 2.171875 4.980469 3.535156 8.21875 3.535156 6.273438 0 11.355469-5.082031 11.355469-11.351563 0-3.238281-1.363281-6.152343-3.535156-8.222656zm0 0" fill="url(#av)"/><path d="m480.328125 91.066406c0 6.273438-5.085937 11.355469-11.355469 11.355469-6.269531 0-11.351562-5.082031-11.351562-11.355469 0-6.269531 5.082031-11.351562 11.351562-11.351562 6.269532 0 11.355469 5.082031 11.355469 11.351562zm0 0" fill="url(#aw)"/><path d="m477.195312 349.410156c-2.070312-2.175781-4.984374-3.539062-8.222656-3.539062-6.269531 0-11.351562 5.082031-11.351562 11.351562 0 3.238282 1.359375 6.152344 3.535156 8.222656l20.222656 20.222657c2.066406 2.171875 4.980469 3.535156 8.21875 3.535156 6.273438 0 11.355469-5.082031 11.355469-11.351563 0-3.238281-1.363281-6.152343-3.535156-8.222656zm0 0" fill="url(#ax)"/><path d="m480.328125 357.226562c0 6.269532-5.085937 11.351563-11.355469 11.351563-6.269531 0-11.351562-5.082031-11.351562-11.351563 0-6.273437 5.082031-11.355468 11.351562-11.355468 6.269532 0 11.355469 5.082031 11.355469 11.355468zm0 0" fill="url(#ay)"/><path d="m485.886719 7.566406c-.683594-.765625-1.421875-1.453125-2.175781-2.105468 2.574218 8.167968 4.269531 21.730468 3.546874 44.085937-2.148437 66.691406-14.339843 47.328125-7.167968 96.8125 7.167968 49.480469 12.1875 64.539063-.71875 96.09375-9.703125 23.71875-1.980469 119.984375 2.453125 166.3125h14.457031c8.679688 0 15.71875-7.035156 15.71875-15.71875v-320.992187c0-22.714844-8.367188-44.636719-23.503906-61.570313zm0 0" fill="url(#az)"/><path d="m512 393.046875v-320.992187c0-22.714844-8.367188-44.636719-23.503906-61.570313l-2.609375-2.917969c-8.554688-9.570312-23.199219-10.042968-32.378907-1.453125-.65625 47.289063-1.503906 147.902344 2.558594 180.402344 5.378906 43.027344 0 59.164063-4.304687 109.71875-2.609375 30.667969 1.90625 79.136719 5.859375 112.53125h38.660156c8.679688 0 15.71875-7.035156 15.71875-15.71875zm0 0" fill="url(#aA)"/><path d="m446.9375 13.433594c-11.574219 14.09375-18.683594 31.269531-20.507812 49.335937 3.886718 48.738281 9.160156 131.429688 7.046874 201.195313-3.226562 106.492187 8.605469 83.902344 15.058594-10.757813 4.699219-68.921875.84375-182.894531-1.597656-239.773437zm0 0" fill="url(#aB)"/><path d="m425.945312 359.699219v33.347656c0 8.683594 7.039063 15.71875 15.722657 15.71875h54.609375c8.683594 0 15.722656-7.035156 15.722656-15.71875v-33.347656zm0 0" fill="url(#aC)"/></svg>