<?xml version="1.0" encoding="iso-8859-1"?>
<!-- Generator: Adobe Illustrator 19.0.0, SVG Export Plug-In . SVG Version: 6.00 Build 0)  -->
<svg version="1.1" id="Capa_1" xmlns="http://www.w3.org/2000/svg" xmlns:xlink="http://www.w3.org/1999/xlink" x="0px" y="0px"
	 viewBox="0 0 468.293 468.293" style="enable-background:new 0 0 468.293 468.293;" xml:space="preserve">
<g>
	<polygon style="fill:#D5D6DB;" points="385.477,447.602 378.13,457.493 393.276,468.293 400.624,458.401 	"/>
	<polygon style="fill:#D5D6DB;" points="272.118,381.91 298.621,400.802 305.968,390.911 279.465,372.018 	"/>
	<polygon style="fill:#D5D6DB;" points="325.124,419.701 351.627,438.594 358.974,428.703 332.471,409.81 	"/>
	<polygon style="fill:#D5D6DB;" points="109.316,428.703 116.663,438.594 143.166,419.701 135.819,409.81 	"/>
	<polygon style="fill:#D5D6DB;" points="162.322,390.911 169.669,400.802 196.172,381.91 188.825,372.018 	"/>
	<polygon style="fill:#D5D6DB;" points="67.669,458.401 75.017,468.293 90.163,457.493 82.816,447.602 	"/>
	<rect x="227.902" y="225.942" style="fill:#D5D6DB;" width="12.488" height="18.351"/>
	<rect x="227.902" y="272.484" style="fill:#D5D6DB;" width="12.488" height="28.21"/>
	<polygon style="fill:#D5D6DB;" points="240.389,328.916 227.901,328.916 227.901,344.151 215.328,353.119 222.676,363.011 
		234.145,354.833 245.618,363.011 252.965,353.119 240.389,344.15 	"/>
</g>
<path style="fill:#DC8744;" d="M402.755,240.55c-1.916-0.113-3.832-0.226-5.805-0.226c-1.973,0-3.889,0.113-5.805,0.226
	c-55.91,3.776-84.146,69.098-52.021,115.031c25.427,36.274,43.29,82.981,51.926,108.466c1.918,5.661,9.882,5.661,11.8,0
	c8.636-25.485,26.499-72.191,51.926-108.466C486.901,309.648,458.664,244.325,402.755,240.55z"/>
<circle style="fill:#EBF0F3;" cx="396.925" cy="311.758" r="45.087"/>
<path style="fill:#27A2DB;" d="M77.149,240.55c-1.916-0.113-3.832-0.226-5.805-0.226s-3.889,0.113-5.805,0.226
	c-55.91,3.776-84.146,69.098-52.021,115.031c25.427,36.274,43.29,82.981,51.926,108.466c1.918,5.661,9.882,5.661,11.8,0
	c8.636-25.485,26.499-72.191,51.926-108.466C161.295,309.648,133.058,244.325,77.149,240.55z"/>
<circle style="fill:#EBF0F3;" cx="71.343" cy="311.758" r="45.087"/>
<path style="fill:#E56353;" d="M239.952,0.226C238.035,0.113,236.119,0,234.146,0s-3.889,0.113-5.805,0.226
	c-55.91,3.776-84.146,69.098-52.021,115.031c25.427,36.274,43.29,82.981,51.926,108.466c1.918,5.661,9.882,5.661,11.8,0
	c8.636-25.485,26.499-72.191,51.926-108.466C324.098,69.324,295.861,4.001,239.952,0.226z"/>
<circle style="fill:#EBF0F3;" cx="234.146" cy="71.436" r="45.087"/>
<g>
</g>
<g>
</g>
<g>
</g>
<g>
</g>
<g>
</g>
<g>
</g>
<g>
</g>
<g>
</g>
<g>
</g>
<g>
</g>
<g>
</g>
<g>
</g>
<g>
</g>
<g>
</g>
<g>
</g>
</svg>
