<?xml version="1.0" encoding="iso-8859-1"?>
<!-- Generator: Adobe Illustrator 19.0.0, SVG Export Plug-In . SVG Version: 6.00 Build 0)  -->
<svg version="1.1" id="Capa_1" xmlns="http://www.w3.org/2000/svg" xmlns:xlink="http://www.w3.org/1999/xlink" x="0px" y="0px"
	 viewBox="0 0 512 512" style="enable-background:new 0 0 512 512;" xml:space="preserve">
<circle style="fill:#FFDC00;" cx="256" cy="256" r="256"/>
<path style="fill:#FFC000;" d="M512,256c0-7.364-0.329-14.651-0.938-21.857L400.439,123.52l-283.998,270.1l118.904,117.548
	c6.814,0.544,13.7,0.832,20.655,0.832C397.385,512,512,397.385,512,256z"/>
<circle style="fill:#0074A3;" cx="256" cy="256" r="196"/>
<path style="fill:#005C83;" d="M256,60v392c108.248,0,196-87.752,196-196S364.248,60,256,60z"/>
<path style="fill:#FFFFFF;" d="M229.167,396.802h-51V119.698h113.02c50.786,0,92.104,41.317,92.104,92.104
	s-41.317,92.104-92.104,92.104h-62.02V396.802z M229.167,252.905h62.02c22.665,0,41.104-18.439,41.104-41.104
	s-18.438-41.104-41.104-41.104h-62.02V252.905z"/>
<path style="fill:#E0E0E0;" d="M291.187,119.698H256v51h35.187c22.665,0,41.104,18.439,41.104,41.104s-18.438,41.104-41.104,41.104
	H256v51h35.187c50.786,0,92.104-41.318,92.104-92.104S341.973,119.698,291.187,119.698z"/>
<g>
</g>
<g>
</g>
<g>
</g>
<g>
</g>
<g>
</g>
<g>
</g>
<g>
</g>
<g>
</g>
<g>
</g>
<g>
</g>
<g>
</g>
<g>
</g>
<g>
</g>
<g>
</g>
<g>
</g>
</svg>
