<?xml version="1.0" standalone="no"?><!DOCTYPE svg PUBLIC "-//W3C//DTD SVG 1.1//EN" "http://www.w3.org/Graphics/SVG/1.1/DTD/svg11.dtd"><svg class="icon" height="512" viewBox="0 0 1537 1024" version="1.1" xmlns="http://www.w3.org/2000/svg"><path d="M939.772179 382.135403c3.224836-89.47009 2.873313-87.46794 2.827463-87.009433 0.168119-1.849313 6.633075-75.974687-5.639642-146.798806-12.425552-71.725851-93.199284-91.487522-93.199284-91.487522l-4.14185-0.16812-85.083702-3.240119v0.443224l-84.243104 3.194269-4.141851 0.183403s-80.758448 19.746388-93.199284 91.472238c-12.272716 70.854687-5.823045 144.964776-5.639641 146.783523-0.045851-0.443224-0.38209-2.43009 2.827462 87.009433 3.392955 94.330269-5.960597 327.007522-4.676776 355.266865 1.283821 28.228776-2.109134 88.109851 3.545791 103.928358 5.639642 15.803224 24.835821 92.633791 24.835821 92.633791s31.086806 59.437851 161.532179 50.55809v-0.351522c129.711761 8.589373 160.691582-50.619224 160.691582-50.619224s19.196179-76.8 24.851105-92.618508c5.639642-15.818507 2.246687-75.684299 3.530507-103.928358 1.253254-28.24406-8.069731-260.936597-4.676776-355.251582z" fill="#59BCA3" /><path d="M861.504955 300.857313c-30.414328-15.818507-106.985075-16.949493-106.985074-16.949492v-0.122269s-76.570746 1.115701-106.969791 16.918926c-30.429612 15.818507-41.617194 23.368597-39.50806 33.898985 2.093851 10.545672 24.805254 115.589731 24.805254 118.218507s2.154985 7.168 13.999761 3.759761c11.844776-3.377672 107.672836-7.534806 107.672836-7.534806v0.152836s95.82806 4.141851 107.688119 7.534806c11.844776 3.408239 13.984478-1.115701 13.984478-3.759761 0-2.659343 22.711403-107.688119 24.820537-118.233791 2.078567-10.545672-9.093731-18.065194-39.50806-33.883702z" fill="#121215" /><path d="M915.685254 352.057313s-0.38209 120.862567 0 156.641433c0.351522 35.763582-0.38209 83.968-3.010866 116.720717-2.64406 32.768-8.650507 179.964179-8.650507 179.964179v3.010865s-18.829373-51.215284-22.604418-90.738626c-8.298985-38.789731-4.52394-134.434388 0-192.787105 1.864597-57.955343 30.490746-162.647881 34.265791-172.811463z" fill="#101114" /><path d="M868.336716 768.015284c-2.185552-13.556537-4.065433-9.59809-4.600358-10.713791-0.534925-1.146269-14.198448 2.537075-19.731104 3.943164-44.612776 7.916896-89.485373 5.945313-89.485373 5.945313v-0.152836s-44.872597 1.971582-89.47009-5.914746c-5.532657-1.421373-19.196179-5.089433-19.731104-3.958448-0.550209 1.115701-2.43009-2.827463-4.600359 10.729075s-13.52597 95.44597-12.700656 96.301851c0.81003 0.840597 27.846687 16.918925 75.699582 24.560716 10.530388 0.473791 50.802627 2.399522 50.802627 2.246687v0.152835c0 0.122269 40.272239-1.772896 50.833194-2.277253 47.837612-7.611224 74.858985-23.735403 75.669015-24.545433 0.825313-0.855881-10.530388-82.745313-12.685374-96.317134z" fill="#131417" /><path d="M912.414567 382.700896l11.997612 6.923462v11.554388h-11.997612z" fill="#0D0E13" /><path d="M835.049075 64.29803a11.233433 11.233433 0 0 0-3.392956-1.650627c-5.303403-1.574209-3.087284-1.054567 3.392956 1.650627zM919.200478 149.824955c-8.329552-50.130149-64.955224-77.487761-84.151403-85.526925 19.287881 13.128597 32.98197 87.116418 43.313671 134.098149 10.912478 49.702209 16.98006 129.788179 16.98006 129.788179s23.292179 4.233552 34.204657 67.140776c8.314269 39.538627 0.779463-178.481672-10.346985-245.500179zM677.933851 63.044776a12.242149 12.242149 0 0 0-3.392955 1.665911c6.480239-2.705194 8.711642-3.240119 3.392955-1.665911zM590.404776 150.222328c-11.141731 67.049075-18.676537 285.038806-10.392836 245.500179 10.927761-62.907224 34.21994-67.125493 34.219941-67.125492s6.067582-80.08597 16.980059-129.788179c10.331701-47.012299 24.025791-120.984836 43.313672-134.098149-19.180896 8.023881-75.806567 35.396776-84.120836 85.511641z" fill="#78C6B5" /><path d="M877.78197 582.778269l36.695881-27.678568v32.768l-36.695881 23.139344zM630.799284 842.675582c-1.574209 12.333851-2.613493 21.228896-2.338388 21.519284 0.81003 0.840597 27.831403 16.918925 75.684298 24.560716 10.560955 0.473791 50.81791 2.399522 50.81791 2.246687v0.152835c0 0.122269 40.272239-1.772896 50.833195-2.277253 47.837612-7.611224 74.874269-23.735403 75.684298-24.545433 0.42794-0.458507-2.506507-23.246328-5.685493-46.706627l-244.99582 25.049791z" fill="#202226" /><path d="M626.336478 422.117254l234.526567-55.571105 35.534328-11.325134c2.216119-10.331701 3.836179-18.019343 4.325254-20.495284 2.093851-10.530388-9.093731-18.065194-39.50806-33.883701s-106.985075-16.949493-106.985074-16.949493v-0.122268s-76.555463 1.115701-106.969792 16.918925c-30.414328 15.818507-41.617194 23.368597-39.523343 33.898985 1.390806 6.95403 11.707224 54.852776 18.60012 87.529075z" fill="#212428" /><path d="M594.210388 352.46997s0.366806 120.862567 0 156.641433c-0.38209 35.763582 0.366806 83.968 3.010866 116.720716 2.628776 32.768 8.650507 179.964179 8.650507 179.96418v3.026149s18.81409-51.2 22.589135-90.753911c8.283701-38.759164 4.52394-134.403821 0-192.771821-1.849313-57.98591-30.490746-162.678448-34.250508-172.826746z" fill="#101114" /><path d="M939.772179 382.410507c3.224836-89.47009 2.873313-87.46794 2.827463-87.009432 0.168119-1.849313 6.633075-75.974687-5.639642-146.798806-12.425552-71.725851-93.199284-91.487522-93.199284-91.487523l-4.14185-0.152836-85.083702-3.255403v0.427941l-84.243104 3.224836-4.141851 0.152835s-80.758448 19.761672-93.199284 91.472239c-12.272716 70.86997-5.823045 144.98006-5.639641 146.798806-0.045851-0.42794-0.38209-2.414806 2.827462 87.04 3.392955 94.299701-5.960597 327.007522-4.676776 355.251582 1.283821 28.228776-2.109134 88.094567 3.545791 103.913075 5.639642 15.803224 24.835821 92.633791 24.835821 92.633791s31.086806 59.437851 161.532179 50.542806v-0.336239c129.711761 8.589373 160.691582-50.619224 160.691582-50.619224s19.196179-76.8 24.851105-92.618507c5.639642-15.803224 2.246687-75.684299 3.530507-103.928358 1.253254-28.24406-8.069731-260.951881-4.676776-355.251583z m-5.639642 460.647165c-15.818507 92.985313-38.774448 108.039642-64.771821 121.978268-25.966806 13.923343-114.840836 15.803224-114.840835 15.803224v0.366806c-9.078448-0.21397-89.485373-2.628776-113.984956-15.772657-25.98209-13.90806-48.953313-28.977672-64.756537-121.993552-15.818507-93.000597 6.205134-130.659343 3.377672-210.271522-2.812179-79.642746-2.521791-284.717851-1.696478-307.841911 0.840597-23.139343-5.624358-183.555821 16.689672-206.67988 22.298746-23.16991 54.042746-54.91391 72.841552-56.075463a695.494687 695.494687 0 0 1 33.761433-0.978149v-0.565493h54.638806v-0.412656h53.798209v0.565492c9.567522 0.091701 23.017075 0.351522 33.746149 1.008717 18.798806 1.130985 50.55809 32.890269 72.872119 56.029611 22.298746 23.16991 15.833791 183.586388 16.659105 206.710448 0.840597 23.108776 1.130985 228.183881-1.696478 307.826627-2.85803 79.627463 19.165612 117.286209 3.362388 210.30209z" fill="#47B2A0" /><path d="M598.352239 910.672239s14.687522 31.224358 38.025552 39.523343 40.287522 12.608955 40.287522 12.608955-30.12394-0.351522-45.728477-9.231283c-15.635104-8.849194-33.532179-22.757254-32.584597-42.901015z" fill="#461218" /><path d="M666.960239 62.586269s-32.569313 15.818507-42.350806 26.562865c-9.796776 10.713791-24.270328 29.161075-24.652418 31.254926-0.366806 2.063284 0 9.017313 0 9.017313s58.169313-63.044776 67.003224-66.835104z" fill="#EACB2D" /><path d="M754.794985 53.691224h0.137552l0.015284-0.275105-0.152836 0.275105zM829.638687 65.001075c-0.290388-3.255403-16.796657-8.023881-20.892657-8.895045-3.973731-0.81003-51.016597-2.323104-53.813493-2.414806l-0.015283 0.412657c-3.072 0.106985-49.809194 1.589493-53.782926 2.399522-4.096 0.840597-20.617552 5.654925-20.892656 8.910328-0.290388 3.224836 2.842746 4.783761 6.770627 3.102568 3.973731-1.696478 9.460537-6.495522 13.694089-7.488956 4.233552-0.978149 54.363701-2.68991 54.363702-2.68991l-0.015284-0.38209c3.912597 0.122269 50.023164 1.727045 54.088597 2.659344 4.248836 1.008716 9.750925 5.792478 13.69409 7.488955s7.076299 0.152836 6.801194-3.102567z" fill="#1D2021" /><path d="M583.771701 390.037015s-32.752716 12.991045-34.709014 25.982089c-1.986866 12.960478-1.696478 14.381851 0 14.381851 1.681194 0 36.420776-18.355582 36.420776-18.355582v-22.008358h-1.711762z" fill="#59BCA3" /><path d="M549.322507 433.350687l-0.275104-2.949732 36.420776-18.355582v2.537075z" fill="#0D0E13" /><path d="M597.465791 383.098269l-11.997612 6.938746v11.554388h11.997612z" fill="#0D0E13" /><path d="M632.098388 583.175642l-36.711164-27.663284v32.737433l36.711164 23.16991z" fill="#202226" /><path d="M640.42794 768.015284c2.170269-13.556537 4.065433-9.59809 4.600359-10.713791 0.534925-1.146269 14.198448 2.537075 19.731104 3.943164 44.612776 7.916896 89.47009 5.945313 89.47009 5.945313v-0.152836s44.887881 1.971582 89.485373-5.914746c5.532657-1.421373 19.180896-5.089433 19.731104-3.958448 0.534925 1.115701 2.43009-2.827463 4.600358 10.729075s13.510687 95.44597 12.700657 96.301851c-0.81003 0.840597-27.846687 16.918925-75.699582 24.560716-10.545672 0.473791-50.81791 2.399522-50.81791 2.246687v0.152835c0 0.122269-40.272239-1.772896-50.817911-2.277253-47.852896-7.611224-74.874269-23.735403-75.699582-24.545433-0.81003-0.855881 10.545672-82.745313 12.71594-96.317134zM648.879761 300.857313c30.414328-15.818507 106.985075-16.949493 106.985075-16.949492v-0.122269s76.570746 1.115701 106.985074 16.918926c30.414328 15.818507 41.60191 23.368597 39.492777 33.898985-2.093851 10.545672-24.805254 115.589731-24.805254 118.218507s-2.154985 7.168-13.999761 3.759761c-11.844776-3.377672-107.672836-7.534806-107.672836-7.534806v0.152836s-95.82806 4.141851-107.68812 7.534806c-11.844776 3.408239-13.984478-1.115701-13.984477-3.759761 0-2.659343-22.711403-107.688119-24.820538-118.233791-2.109134-10.545672 9.078448-18.065194 39.50806-33.883702z" fill="#343C3E" /><path d="M635.552478 308.071164c-20.739821 11.416836-28.442746 18.172179-26.685135 27.067224 2.109134 10.530388 24.820537 115.589731 24.820538 118.218508s2.139701 7.168 13.984477 3.759761c2.68991-0.764179 9.689791-1.574209 18.875224-2.353672-14.305433-35.106388-26.24191-112.838687-30.995104-146.691821zM875.13791 307.887761c20.739821 11.386269 28.442746 18.156896 26.685135 27.067224-2.109134 10.530388-24.835821 115.589731-24.835821 118.233791 0 2.628776-2.124418 7.152716-13.969194 3.759761-2.68991-0.779463-9.674507-1.589493-18.890508-2.353671 14.320716-35.152239 26.287761-112.85397 31.010388-146.707105z" fill="#2D3537" /><path d="M895.831881 321.383164c-6.006448-5.670209-17.02591-11.967045-34.17409-20.862089-30.414328-15.818507-106.985075-16.949493-106.985075-16.949493v0.137552l-0.198686 0.015284v0.061134c-6.144 0.122269-77.457194 1.818746-106.557134 16.918926-17.148179 8.925612-28.182925 15.207164-34.17409 20.862089l27.05194 21.228896s54.959761-8.681075 114.321194-9.674508v-0.21397c59.00991 1.069851 113.511164 6.801194 113.511164 6.801194l27.204777-18.325015z" fill="#161819" /><path d="M842.904836 62.188896s32.584597 15.818507 42.366089 26.532298c9.781493 10.744358 24.285612 29.191642 24.652418 31.254925 0.366806 2.078567 0 9.047881 0 9.047881s-58.169313-63.075343-67.018507-66.835104z" fill="#EACB2D" /><path d="M801.180657 72.474746h-102.4s-21.091343 6.052299-27.877254 82.821732c-6.770627 76.815284-18.81409 135.565373 28.626149 121.993552 47.440239-13.556537 73.040239-1.497791 94.131582-3.010866 21.091343-1.497791 53.46197 21.855522 41.418508-82.821731s-13.556537-110.698985-33.898985-118.982687z" fill="#78C6B5" /><path d="M695.586388 269.602388l17.316299-173.590925-12.807642 61.348298zM814.309254 269.174448L796.977672 95.61409l12.807641 61.363582z" fill="#47B2A0" /><path d="M911.528119 910.259582s-14.687522 31.254925-38.025552 39.538627c-23.33803 8.268418-40.302806 12.608955-40.302806 12.608955s30.139224-0.351522 45.759045-9.231283c15.635104-8.849194 33.516896-22.772537 32.569313-42.916299z" fill="#4D1018" /><path d="M645.028299 757.714149c-0.534925 1.100418-2.43009-2.842746-4.600359 10.683224-2.170269 13.587104-13.52597 95.491821-12.71594 96.332418 0.397373 0.38209 6.908179 4.371104 18.890507 9.216l15.558687-112.945672c-6.342687-1.650627-16.659104-4.294687-17.132895-3.28597zM868.046328 768.397373c-2.170269-13.52597-4.065433-9.582806-4.600358-10.683224-0.458507-1.008716-10.790209 1.62006-17.148179 3.28597l15.558687 112.945672c11.982328-4.829612 18.508418-8.818627 18.890507-9.216 0.81003-0.840597-10.530388-82.745313-12.700657-96.332418z" fill="#2E3436" /><path d="M926.093373 389.624358s32.783284 12.975761 34.739582 25.966806c1.971582 12.991045 1.696478 14.381851 0 14.381851s-36.43606-18.355582-36.436059-18.355582v-21.993075h1.696477z" fill="#59BCA3" /><path d="M960.557851 432.93803l0.290388-2.949731-36.43606-18.355583v2.552359z" fill="#0D0E13" /><path d="M805.582328 884.613731h-107.306029s-58.75009-7.916896-50.833195 16.934209-7.916896 55.357134 73.422329 55.357135h62.127761c81.32394 0 65.520716-30.50603 73.437612-55.357135 7.886328-24.851104-50.848478-16.934209-50.848478-16.934209z" fill="#78C6B5" /><path d="M758.325493 871.668537c-49.74806 0-94.498388-11.034746-125.52406-28.610865l-2.002149-0.38209c-3.178985 23.490866-2.827463 21.610985-2.399523 22.054209 0.81003 0.855881 27.846687 16.934209 75.699582 24.560716 10.545672 0.489075 50.81791 2.384239 50.817911 2.231403v-0.122268c0 0.122269 40.256955-1.757612 50.81791-2.26197 47.852896-7.611224 74.858985-23.704836 75.684299-24.545433 0.259821-0.259821-0.626627-8.008597-2.048-19.089194-30.765851 16.154746-73.636299 26.165493-121.04597 26.165492z" fill="#202226" /><path d="M828.767522 534.161194c11.890627-36.879284-7.932179-49.885612-30.154507-53.798209-17.545552-3.072-61.210746-2.154985-75.470328-1.192119-25.645851 1.727045-53.88991 12.563104-40.195821 54.990328 23.276896 72.214925-1.253254 170.748179 0 182.333134 0.917015 8.543522 13.373134 22.864239 38.453492 26.471165 8.925612 1.268537 65.612418 1.161552 75.882985-1.344956 20.388299-4.982448 30.643582-17.438567 31.484179-25.141492 1.23797-11.569672-23.292179-110.102925 0-182.317851z" fill="#78C6B5" /></svg>