<?xml version="1.0" encoding="iso-8859-1"?>
<!-- Generator: Adobe Illustrator 19.0.0, SVG Export Plug-In . SVG Version: 6.00 Build 0)  -->
<svg version="1.1" id="Capa_1" xmlns="http://www.w3.org/2000/svg" xmlns:xlink="http://www.w3.org/1999/xlink" x="0px" y="0px"
	 viewBox="0 0 468.293 468.293" style="enable-background:new 0 0 468.293 468.293;" xml:space="preserve">
<path style="fill:#E56353;" d="M290.176,119.447v196.461H45.729c-6.367,0-11.577-5.209-11.577-11.577v-92.384H0l16.787-5.846
	l17.365-6.02v-17.134H0l16.787-5.846l17.365-6.02v-17.134H0l16.787-5.846l17.365-6.019v-22.634c0-6.424,5.21-11.577,11.577-11.577
	h232.87C285.025,107.87,290.176,113.022,290.176,119.447z"/>
<path style="fill:#D15241;" d="M290.176,119.447v196.461h-22.459V136.464c0-6.424-5.152-11.577-11.577-11.577H34.152v-5.441
	c0-6.424,5.21-11.577,11.577-11.577h232.87C285.025,107.87,290.176,113.022,290.176,119.447z"/>
<path style="fill:#FCD462;" d="M468.293,234.771v71.739c0,5.179-4.198,9.377-9.377,9.377H290.181V152.731h96.073
	c2.487,0,4.872,0.988,6.63,2.746l72.662,72.663C467.305,229.899,468.293,232.284,468.293,234.771z"/>
<path style="fill:#3A556A;" d="M422.901,243.498H323c-5.179,0-9.377-4.198-9.377-9.377v-48.572c0-5.179,4.198-9.377,9.377-9.377
	h53.427c2.559,0,5.006,1.046,6.775,2.894l46.475,48.572C435.383,233.603,431.156,243.498,422.901,243.498z"/>
<path style="fill:#64798A;" d="M422.901,243.498H323c-5.179,0-9.377-4.198-9.377-9.377v-48.572c0-5.179,4.198-9.377,9.377-9.377
	l106.677,51.466C435.383,233.603,431.156,243.498,422.901,243.498z"/>
<circle style="fill:#3A556A;" cx="372.948" cy="315.885" r="44.538"/>
<circle style="fill:#64798A;" cx="372.948" cy="315.885" r="23.44"/>
<circle style="fill:#3A556A;" cx="115.287" cy="315.885" r="44.538"/>
<circle style="fill:#64798A;" cx="115.287" cy="315.885" r="23.44"/>
<path style="fill:#27A2DB;" d="M226.259,187.615c0,20.69-37.463,87.415-37.463,87.415s-37.463-66.724-37.463-87.415
	s16.773-37.463,37.463-37.463S226.259,166.925,226.259,187.615z"/>
<circle style="fill:#EBF0F3;" cx="188.791" cy="187.617" r="21.854"/>
<g>
</g>
<g>
</g>
<g>
</g>
<g>
</g>
<g>
</g>
<g>
</g>
<g>
</g>
<g>
</g>
<g>
</g>
<g>
</g>
<g>
</g>
<g>
</g>
<g>
</g>
<g>
</g>
<g>
</g>
</svg>
