<?xml version="1.0" encoding="iso-8859-1"?>
<!-- Generator: Adobe Illustrator 19.0.0, SVG Export Plug-In . SVG Version: 6.00 Build 0)  -->
<svg version="1.1" id="Capa_1" xmlns="http://www.w3.org/2000/svg" xmlns:xlink="http://www.w3.org/1999/xlink" x="0px" y="0px"
	 viewBox="0 0 512 512" style="enable-background:new 0 0 512 512;" xml:space="preserve">
<path style="fill:#00457D;" d="M497.231,472.615H364.308c-8.157,0-14.769-6.613-14.769-14.769s6.613-14.769,14.769-14.769h132.923
	c8.157,0,14.769,6.613,14.769,14.769S505.387,472.615,497.231,472.615z"/>
<path style="fill:#0072AE;" d="M285.538,472.615H78.769c-8.157,0-14.769-6.613-14.769-14.769v-83.692
	c0-6.357,4.068-12,10.099-14.011l141.636-47.211c7.737-2.577,16.102,1.602,18.682,9.341c2.579,7.738-1.603,16.102-9.341,18.682
	L93.538,384.8v58.277h192c8.157,0,14.769,6.613,14.769,14.769S293.695,472.615,285.538,472.615z"/>
<g>
	<path style="fill:#00457D;" d="M295.133,316.805c-6.184,0-11.946-3.914-14.01-10.103c-2.579-7.738,1.603-16.102,9.341-18.682
		l127.998-42.665v-73.047c0-8.157,6.613-14.769,14.769-14.769S448,164.151,448,172.308V256c0,6.357-4.068,12-10.099,14.011
		l-138.096,46.032C298.256,316.56,296.68,316.805,295.133,316.805z"/>
	<path style="fill:#00457D;" d="M393.846,147.692H236.308c-8.157,0-14.769-6.613-14.769-14.769c0-8.157,6.613-14.769,14.769-14.769
		h157.538c8.157,0,14.769,6.613,14.769,14.769C408.615,141.08,402.003,147.692,393.846,147.692z"/>
	<path style="fill:#00457D;" d="M196.923,118.154h-39.385c-8.157,0-14.769,6.613-14.769,14.769
		c0,19.002,15.459,34.462,34.462,34.462s34.462-15.459,34.462-34.462C211.692,124.767,205.08,118.154,196.923,118.154z"/>
	<path style="fill:#00457D;" d="M78.769,118.154H39.385c-8.157,0-14.769,6.613-14.769,14.769c0,19.002,15.459,34.462,34.462,34.462
		s34.462-15.459,34.462-34.462C93.538,124.767,86.926,118.154,78.769,118.154z"/>
</g>
<path style="fill:#FF9420;" d="M216.615,0H14.769C6.613,0,0,6.613,0,14.769v118.154c0,8.157,6.613,14.769,14.769,14.769h221.538
	c8.157,0,14.769-6.613,14.769-14.769V34.462C251.077,15.459,235.617,0,216.615,0z"/>
<path style="fill:#FFAD49;" d="M125.538,0H14.769C6.613,0,0,6.613,0,14.769v118.154c0,8.157,6.613,14.769,14.769,14.769h110.769V0z"
	/>
<g>
	<path style="fill:#EBDBDD;" d="M251.077,49.231h-73.846c-8.157,0-14.769,6.613-14.769,14.769s6.613,14.769,14.769,14.769h73.846
		V49.231z"/>
	<path style="fill:#EBDBDD;" d="M128,78.769H88.615c-8.157,0-14.769-6.613-14.769-14.769s6.613-14.769,14.769-14.769H128
		c8.157,0,14.769,6.613,14.769,14.769S136.157,78.769,128,78.769z"/>
</g>
<g>
	<path style="fill:#EEF8FF;" d="M125.538,49.231H88.615c-8.157,0-14.769,6.613-14.769,14.769s6.613,14.769,14.769,14.769h36.923
		V49.231z"/>
	<path style="fill:#EEF8FF;" d="M0,78.769h39.385c8.157,0,14.769-6.613,14.769-14.769s-6.613-14.769-14.769-14.769H0V78.769z"/>
</g>
<path style="fill:#B7293F;" d="M433.231,78.769c-29.86,0-54.154,24.293-54.154,54.154s24.293,54.154,54.154,54.154
	c29.86,0,54.154-24.293,54.154-54.154S463.091,78.769,433.231,78.769z"/>
<path style="fill:#F0204B;" d="M379.077,132.923c0,29.86,24.293,54.154,54.154,54.154V78.769
	C403.37,78.769,379.077,103.063,379.077,132.923z"/>
<path style="fill:#21D8DE;" d="M257.969,260.923c-29.86,0-54.154,24.293-54.154,54.154c0,29.86,24.293,54.154,54.154,54.154
	s54.154-24.293,54.154-54.154C312.123,285.216,287.83,260.923,257.969,260.923z"/>
<path style="fill:#0099FF;" d="M324.923,403.692c-29.86,0-54.154,24.293-54.154,54.154c0,29.86,24.293,54.154,54.154,54.154
	c29.86,0,54.154-24.293,54.154-54.154C379.077,427.986,354.784,403.692,324.923,403.692z"/>
<path style="fill:#29EDED;" d="M203.815,315.077c0,29.86,24.293,54.154,54.154,54.154V260.923
	C228.109,260.923,203.815,285.216,203.815,315.077z"/>
<path style="fill:#00B3FE;" d="M270.769,457.846c0,29.86,24.293,54.154,54.154,54.154V403.692
	C295.063,403.692,270.769,427.986,270.769,457.846z"/>
<g>
</g>
<g>
</g>
<g>
</g>
<g>
</g>
<g>
</g>
<g>
</g>
<g>
</g>
<g>
</g>
<g>
</g>
<g>
</g>
<g>
</g>
<g>
</g>
<g>
</g>
<g>
</g>
<g>
</g>
</svg>
